<?xml version="1.0" encoding="UTF-8" standalone="no"?>
<!-- Created with Inkscape (http://www.inkscape.org/) -->

<svg
   xmlns:dc="http://purl.org/dc/elements/1.1/"
   xmlns:cc="http://creativecommons.org/ns#"
   xmlns:rdf="http://www.w3.org/1999/02/22-rdf-syntax-ns#"
   xmlns:svg="http://www.w3.org/2000/svg"
   xmlns="http://www.w3.org/2000/svg"
   xmlns:sodipodi="http://sodipodi.sourceforge.net/DTD/sodipodi-0.dtd"
   xmlns:inkscape="http://www.inkscape.org/namespaces/inkscape"
   width="70"
   height="70"
   viewBox="0 0 69.999997 70.000004"
   id="svg2"
   version="1.1"
   inkscape:version="0.91 r13725"
   sodipodi:docname="askfm.svg">
  <defs
     id="defs4">
    <linearGradient
       x1="0"
       y1="0"
       x2="1"
       y2="0"
       gradientUnits="userSpaceOnUse"
       gradientTransform="matrix(-8.09e-5,-1850,-1850,8.09e-5,-3358.053,647.65151)"
       spreadMethod="pad"
       id="linearGradient14">
      <stop
         style="stop-opacity:1;stop-color:#214263"
         offset="0"
         id="stop16" />
      <stop
         style="stop-opacity:1;stop-color:#19314a"
         offset="0.939394"
         id="stop18" />
      <stop
         style="stop-opacity:1;stop-color:#19314a"
         offset="1"
         id="stop20" />
    </linearGradient>
  </defs>
  <sodipodi:namedview
     id="base"
     pagecolor="#ffffff"
     bordercolor="#666666"
     borderopacity="1.0"
     inkscape:pageopacity="0.0"
     inkscape:pageshadow="2"
     inkscape:zoom="2.89818"
     inkscape:cx="45.614321"
     inkscape:cy="61.398495"
     inkscape:document-units="px"
     inkscape:current-layer="layer1"
     showgrid="false"
     units="px"
     fit-margin-top="0"
     fit-margin-left="0"
     fit-margin-bottom="0"
     fit-margin-right="0"
     inkscape:window-width="1918"
     inkscape:window-height="1052"
     inkscape:window-x="0"
     inkscape:window-y="26"
     inkscape:window-maximized="0" />
  <metadata
     id="metadata7">
    <rdf:RDF>
      <cc:Work
         rdf:about="">
        <dc:format>image/svg+xml</dc:format>
        <dc:type
           rdf:resource="http://purl.org/dc/dcmitype/StillImage" />
        <dc:title></dc:title>
      </cc:Work>
    </rdf:RDF>
  </metadata>
  <g
     inkscape:groupmode="layer"
     id="layer2"
     inkscape:label="背景"
     transform="translate(92.006985,-331.51197)" />
  <g
     inkscape:label="レイヤー 1"
     inkscape:groupmode="layer"
     id="layer1"
     transform="translate(92.006985,-1323.8741)">
    <rect
       style="color:#000000;clip-rule:nonzero;display:inline;overflow:visible;visibility:visible;opacity:1;isolation:auto;mix-blend-mode:normal;color-interpolation:sRGB;color-interpolation-filters:linearRGB;solid-color:#000000;solid-opacity:1;fill:#1f3e5d;fill-opacity:1;fill-rule:nonzero;stroke:none;stroke-width:13;stroke-linecap:round;stroke-linejoin:round;stroke-miterlimit:4;stroke-dasharray:none;stroke-dashoffset:0;stroke-opacity:1;color-rendering:auto;image-rendering:auto;shape-rendering:auto;text-rendering:auto;enable-background:accumulate"
       id="rect4955"
       width="70.000008"
       height="70.000008"
       x="-92.006989"
       y="1323.8741" />
    <g
       id="g4862"
       transform="translate(-61.072818,-45.545831)" />
    <g
       transform="matrix(0.02048796,0,0,-0.02048796,-109.45616,1378.8671)"
       id="g4819">
      <path
         d="m 2814.51,699.031 c -48.91,0 -83.47,-38.152 -83.47,-84.972 0,-41.797 29.27,-74.809 73.01,-74.809 50.26,0 84.87,36.762 84.87,83.609 0,43.082 -29.22,76.172 -74.41,76.172"
         style="fill:#9bda00;fill-opacity:1;fill-rule:nonzero;stroke:none"
         id="path24"
         inkscape:connector-curvature="0" />
      <path
         d="m 3397.01,1139.84 -223.47,0 3,17.97 c 16.7,96 54.64,172.82 132.99,172.82 22.66,0 42.75,-3.67 58.27,-10.83 l 21.26,79.22 c -14.3,8.42 -40.35,15.6 -79.53,15.6 -49.85,0 -99.76,-18.02 -136.54,-51.62 -51.1,-46.82 -79.63,-121.27 -93.71,-201.61 l -4.57,-21.55 -66.77,-0.45 -21.81,-85.78 72.56,0.43 -90.93,-514.79 98.67,0 90.19,514.79 141.57,0 c -4.57,-30.9 -9.19,-59.704 -15.31,-93.063 l -78.46,-422.348 96.27,0 54.59,302.191 c 22.48,123.743 112.8,219.78 184.03,219.78 72.39,0 85.52,-50.5 85.52,-99.623 0,-22.852 -2.46,-44.5 -7.17,-70.809 l -66.51,-351.539 95.04,0 56.88,308.23 c 23.76,129.657 109.28,213.741 180.51,213.741 63.99,0 86.59,-39.62 86.59,-100.834 0,-23.973 -3.45,-52.903 -8.18,-75.633 l -64.22,-345.504 96.1,0 66.61,353.898 c 6,32.395 9.52,72.036 9.52,98.379 0,109.204 -73.67,152.454 -140.07,152.454 -85.53,-1.17 -159.2,-45.59 -210.11,-129.55 -4.9,73.15 -46.3,129.55 -134.22,129.55 -76.01,0 -148.35,-40.81 -201.83,-122.38 l -2.34,0 14.75,115.27"
         style="fill:#9bda00;fill-opacity:1;fill-rule:nonzero;stroke:none"
         id="path26"
         inkscape:connector-curvature="0" />
      <path
         d="m 1932.91,900 c -46.03,23.164 -69.59,43.828 -69.59,68.191 0,32.989 29.47,52.489 75.6,52.489 49.52,0 90.79,-14.75 114.36,-25.59 l 41.36,124.19 c -28.36,15.86 -81.46,30.47 -148.74,30.47 -148.68,0 -253.66,-81.6 -253.66,-205.922 0,-74.402 55.4,-124.316 121.53,-158.359 53.15,-26.938 72.02,-47.52 72.02,-76.938 0,-29.203 -24.83,-53.601 -73.19,-53.601 -55.51,0 -116.87,24.398 -149.84,41.48 l -41.37,-123.121 c 34.33,-25.578 102.72,-44.98 175.83,-46.141 153.41,-1.308 265.59,72.903 265.59,209.473 0,82.891 -66.15,130.488 -129.9,163.379"
         style="fill:#ffffff;fill-opacity:1;fill-rule:nonzero;stroke:none"
         id="path28"
         inkscape:connector-curvature="0" />
      <path
         d="m 2731.04,1139.84 -209.93,0 -155.05,-186.219 c -16.55,-20.777 -34.28,-43.875 -51.84,-67.019 l -2.47,0 105.46,539.238 -168.72,0 -169.09,-886.59 168.64,0 35.35,191.262 63.74,63.398 107.93,-254.66 190.13,0 -167.13,349.805 252.98,250.785"
         style="fill:#ffffff;fill-opacity:1;fill-rule:nonzero;stroke:none"
         id="path30"
         inkscape:connector-curvature="0" />
      <path
         d="m 1437.02,873.145 c -27.15,-146.317 -92.01,-214.043 -142.78,-214.043 -47.2,0 -67.17,48.218 -67.17,106.738 0,110.879 75.8,252.71 185.51,252.71 17.63,0 37.46,-5.27 50.46,-7.63 l -26.02,-137.775 z m 212.19,246.505 c -48.29,15.79 -116.6,28.9 -186.17,28.9 -283.23,0 -413.04,-214.448 -413.04,-415.562 0,-124.289 70.78,-207.148 174.65,-207.148 67.22,0 141.65,32.898 194.7,131.629 l 2.37,0 c -2.37,-42.75 -7.92,-82.809 -9.14,-118.219 l 157.79,0 c -2.4,74.27 9.35,191.262 23.57,268.148 l 55.27,312.252"
         style="fill:#ffffff;fill-opacity:1;fill-rule:nonzero;stroke:none"
         id="path32"
         inkscape:connector-curvature="0" />
    </g>
  </g>
</svg>
