<svg xmlns="http://www.w3.org/2000/svg" width="256" height="256" viewBox="0 0 239.99999 239.99998"><path fill="#fca" d="M0 0h240v240H0z"/><path d="M39.541-133.963c19.123-.79 74.115-1.42 121.012 24.351 35.45 19.481 53.942 35.435 72.28 76.192 10.276 22.836 13.159 87.36 13.159 87.36s-30.83-37.107-58.93-40.66c-28.1-3.553-65.175-1.185-95.225 21.711-30.05 22.896-73.37 47.765-88.2 48.95-14.83 1.184-21.855 3.552-39.027-2.37-17.172-5.92-20.557-18.49-35.766-17.776-8.256.386-7.862.543-7.862.543s-10.229-51.847-7.107-81.059c3.123-29.211 8.977-48.16 20.684-67.897 11.708-19.738 36.295-32.764 40.588-33.949 4.293-1.184 15.22-9.869 38.246-13.027 23.026-3.158 26.148-2.368 26.148-2.368z" fill="#5a3400"/><path style="line-height:normal;text-indent:0;text-align:start;text-decoration-line:none;text-decoration-style:solid;text-decoration-color:#000;text-transform:none;isolation:auto;mix-blend-mode:normal" d="M37.713 83.269a2.753 2.753 0 0 0-.775 5.357l55.53 19.855-55.859 28.637a2.753 2.753 0 0 0 1.258 5.204 2.753 2.753 0 0 0 1.56-.459l61.206-31.38a2.753 2.753 0 0 0-.33-5.042L38.787 83.445a2.753 2.753 0 0 0-1.079-.173zM218.632 88.626a2.753 2.753 0 0 0-.733.118l-58.205 16.74a2.753 2.753 0 0 0-.468 5.112l55.093 27.448a2.753 2.753 0 1 0 2.455-4.927l-48.761-24.295 51.409-14.787a2.753 2.753 0 0 0-.79-5.41zM180.031 41.288c-5.483.685-9.885 1.182-15.286 4.012-5.4 2.831-11.662 7.806-21.78 17.37a2.754 2.754 0 1 0 3.785 4c9.981-9.434 15.972-14.094 20.551-16.495 4.58-2.4 7.885-2.733 13.414-3.424 9.825-1.228 19.025 4.238 22.856 6.3.155.081 2.357 1.734 4.708 3.78 2.35 2.045 5.185 4.623 7.91 7.142a896.202 896.202 0 0 1 10.457 9.84 2.753 2.753 0 1 0 3.813-3.973s-5.04-4.831-10.535-9.911c-2.747-2.54-5.607-5.143-8.03-7.252-2.425-2.11-4.078-3.592-5.713-4.472-3.327-1.791-13.95-8.442-26.15-6.917zM67.074 32.302C40.041 30.848 20.38 50.724 20.38 50.724a2.753 2.753 0 1 0 3.892 3.891S42.6 36.5 66.777 37.8c12.424.668 18.621 3.395 24.189 8.386 5.567 4.991 10.494 12.664 18.998 22.841a2.753 2.753 0 1 0 4.224-3.53c-8.29-9.921-13.135-17.667-19.544-23.413-6.41-5.746-14.39-9.074-27.57-9.782z" color="#000" font-weight="400" font-family="sans-serif" white-space="normal" overflow="visible" fill="#282828"/><path d="M161.151 193.693c-13.84-6.391-50.833-20.952-62.567-17.08-7.44 2.454-10.123 7.008-10.512 14.016-.39 7.008-1.927 32.68 3.504 54.576 5.01 20.199 10.635 30.292 20.84 31.927 6.186.99 15.425-2.325 21.21-6.425 12.394-8.783 15.84-15.567 22.582-34.457 2.984-8.362 8.762-31.581 9.344-35.43.555-3.666-1.49-5.774-4.4-7.127z" fill="#ff3c3c"/></svg>