<?xml version="1.0" encoding="UTF-8" standalone="no"?>
<!-- Created with Inkscape (http://www.inkscape.org/) -->

<svg
   xmlns:dc="http://purl.org/dc/elements/1.1/"
   xmlns:cc="http://creativecommons.org/ns#"
   xmlns:rdf="http://www.w3.org/1999/02/22-rdf-syntax-ns#"
   xmlns:svg="http://www.w3.org/2000/svg"
   xmlns="http://www.w3.org/2000/svg"
   xmlns:sodipodi="http://sodipodi.sourceforge.net/DTD/sodipodi-0.dtd"
   xmlns:inkscape="http://www.inkscape.org/namespaces/inkscape"
   width="14.111116mm"
   height="14.111134mm"
   viewBox="0 0 50.000019 50.000079"
   id="svg2"
   version="1.1"
   inkscape:version="0.91 r13725"
   sodipodi:docname="favicon.svg"
   inkscape:export-filename="/home/yantene/others/web/yantene.net/images/favicon.png"
   inkscape:export-xdpi="460.79984"
   inkscape:export-ydpi="460.79984">
  <defs
     id="defs4" />
  <sodipodi:namedview
     id="base"
     pagecolor="#ffffff"
     bordercolor="#666666"
     borderopacity="1.0"
     inkscape:pageopacity="0.0"
     inkscape:pageshadow="2"
     inkscape:zoom="13.308895"
     inkscape:cx="21.697713"
     inkscape:cy="26.702113"
     inkscape:document-units="px"
     inkscape:current-layer="layer1"
     showgrid="false"
     fit-margin-top="0"
     fit-margin-left="0"
     fit-margin-right="0"
     fit-margin-bottom="0"
     inkscape:window-width="1918"
     inkscape:window-height="1052"
     inkscape:window-x="0"
     inkscape:window-y="26"
     inkscape:window-maximized="0" />
  <metadata
     id="metadata7">
    <rdf:RDF>
      <cc:Work
         rdf:about="">
        <dc:format>image/svg+xml</dc:format>
        <dc:type
           rdf:resource="http://purl.org/dc/dcmitype/StillImage" />
        <dc:title></dc:title>
      </cc:Work>
    </rdf:RDF>
  </metadata>
  <g
     inkscape:label="レイヤー 1"
     inkscape:groupmode="layer"
     id="layer1"
     transform="translate(-137.48976,-904.8281)">
    <path
       style="color:#000000;clip-rule:nonzero;display:inline;overflow:visible;visibility:visible;opacity:1;isolation:auto;mix-blend-mode:normal;color-interpolation:sRGB;color-interpolation-filters:linearRGB;solid-color:#000000;solid-opacity:1;fill:#91efbd;fill-opacity:1;fill-rule:nonzero;stroke:none;stroke-width:1;stroke-linecap:round;stroke-linejoin:round;stroke-miterlimit:3;stroke-dasharray:none;stroke-dashoffset:0;stroke-opacity:1;color-rendering:auto;image-rendering:auto;shape-rendering:auto;text-rendering:auto;enable-background:accumulate"
       d="m 162.5054,948.06837 a 50,50 0 0 1 -1.05468,0.5957 50,50 0 0 1 -4.49805,2.18164 50,50 0 0 1 -4.69141,1.72266 50,50 0 0 1 -4.83984,1.24411 50,50 0 0 1 -4.93945,0.7559 50,50 0 0 1 -4.99219,0.2598 l 50,0 a 50,50 0 0 1 -1.17969,-0.0176 50,50 0 0 1 -4.98437,-0.3789 50,50 0 0 1 -4.91993,-0.877 50,50 0 0 1 -4.80859,-1.36131 50,50 0 0 1 -4.65039,-1.83594 50,50 0 0 1 -4.44141,-2.28906 z"
       id="path4464"
       inkscape:connector-curvature="0"
       inkscape:export-xdpi="1843.1986"
       inkscape:export-ydpi="1843.1986" />
    <path
       style="color:#000000;clip-rule:nonzero;display:inline;overflow:visible;visibility:visible;opacity:1;isolation:auto;mix-blend-mode:normal;color-interpolation:sRGB;color-interpolation-filters:linearRGB;solid-color:#000000;solid-opacity:1;fill:#91deef;fill-opacity:1;fill-rule:nonzero;stroke:none;stroke-width:1;stroke-linecap:round;stroke-linejoin:round;stroke-miterlimit:3;stroke-dasharray:none;stroke-dashoffset:0;stroke-opacity:1;color-rendering:auto;image-rendering:auto;shape-rendering:auto;text-rendering:auto;enable-background:accumulate"
       d="m 137.48978,904.82813 0,50.00005 a 50,50 0 0 1 0.0176,-1.1817 50,50 0 0 1 0.3789,-4.98436 50,50 0 0 1 0.87696,-4.91992 50,50 0 0 1 1.36132,-4.8086 50,50 0 0 1 1.83594,-4.64844 50,50 0 0 1 2.29102,-4.4414 50,50 0 0 1 -0.59571,-1.05664 50,50 0 0 1 -2.18359,-4.4961 50,50 0 0 1 -1.72266,-4.6914 50,50 0 0 1 -1.24414,-4.83985 50,50 0 0 1 -0.75586,-4.9414 50,50 0 0 1 -0.25976,-4.99024 z"
       id="path4456"
       inkscape:connector-curvature="0"
       inkscape:export-xdpi="1843.1986"
       inkscape:export-ydpi="1843.1986" />
    <path
       style="color:#000000;clip-rule:nonzero;display:inline;overflow:visible;visibility:visible;opacity:1;isolation:auto;mix-blend-mode:normal;color-interpolation:sRGB;color-interpolation-filters:linearRGB;solid-color:#000000;solid-opacity:1;fill:#91c8ef;fill-opacity:1;fill-rule:nonzero;stroke:none;stroke-width:1;stroke-linecap:round;stroke-linejoin:round;stroke-miterlimit:3;stroke-dasharray:none;stroke-dashoffset:0;stroke-opacity:1;color-rendering:auto;image-rendering:auto;shape-rendering:auto;text-rendering:auto;enable-background:accumulate"
       d="m 137.48978,904.82813 a 50,50 0 0 1 1.18164,0.0156 50,50 0 0 1 4.98242,0.38086 50,50 0 0 1 4.92188,0.875 50,50 0 0 1 4.80859,1.36328 50,50 0 0 1 4.64844,1.83594 50,50 0 0 1 4.4414,2.29101 50,50 0 0 1 1.05664,-0.59765 50,50 0 0 1 4.4961,-2.18164 50,50 0 0 1 4.6914,-1.72266 50,50 0 0 1 4.83985,-1.2461 50,50 0 0 1 4.9414,-0.75585 50,50 0 0 1 4.99024,-0.25782 l -50,0 z"
       id="rect4422"
       inkscape:connector-curvature="0"
       inkscape:export-xdpi="1843.1986"
       inkscape:export-ydpi="1843.1986" />
    <path
       inkscape:connector-curvature="0"
       style="color:#000000;clip-rule:nonzero;display:inline;overflow:visible;visibility:visible;opacity:1;isolation:auto;mix-blend-mode:normal;color-interpolation:sRGB;color-interpolation-filters:linearRGB;solid-color:#000000;solid-opacity:1;fill:#c8ef91;fill-opacity:1;fill-rule:nonzero;stroke:none;stroke-width:1;stroke-linecap:round;stroke-linejoin:round;stroke-miterlimit:3;stroke-dasharray:none;stroke-dashoffset:0;stroke-opacity:1;color-rendering:auto;image-rendering:auto;shape-rendering:auto;text-rendering:auto;enable-background:accumulate"
       d="m 187.48976,954.8281 a 50,50 0 0 0 -0.25977,-4.99219 50,50 0 0 0 -0.75586,-4.93945 50,50 0 0 0 -1.24609,-4.8418 50,50 0 0 0 -1.72266,-4.6914 50,50 0 0 0 -2.18164,-4.4961 50,50 0 0 0 -0.5957,-1.05273 50,50 0 0 1 -2.71289,4.19726 50,50 0 0 1 -1.47656,1.84961 l 10.95117,18.9668 z"
       id="path4564"
       inkscape:export-xdpi="1843.1986"
       inkscape:export-ydpi="1843.1986" />
    <path
       inkscape:connector-curvature="0"
       style="color:#000000;clip-rule:nonzero;display:inline;overflow:visible;visibility:visible;opacity:1;isolation:auto;mix-blend-mode:normal;color-interpolation:sRGB;color-interpolation-filters:linearRGB;solid-color:#000000;solid-opacity:1;fill:#91efa7;fill-opacity:1;fill-rule:nonzero;stroke:none;stroke-width:1;stroke-linecap:round;stroke-linejoin:round;stroke-miterlimit:3;stroke-dasharray:none;stroke-dashoffset:0;stroke-opacity:1;color-rendering:auto;image-rendering:auto;shape-rendering:auto;text-rendering:auto;enable-background:accumulate"
       d="m 187.48976,954.8281 -10.95117,-18.9668 a 50,50 0 0 1 -1.64063,2.05664 50,50 0 0 1 -3.49218,3.57422 50,50 0 0 1 -3.83204,3.20899 50,50 0 0 1 -4.13281,2.81054 50,50 0 0 1 -0.93555,0.55664 50,50 0 0 0 4.44141,2.28907 50,50 0 0 0 4.65039,1.83593 50,50 0 0 0 4.8086,1.36133 50,50 0 0 0 4.91992,0.87696 50,50 0 0 0 4.98437,0.3789 50,50 0 0 0 1.17969,0.0176 z"
       id="path4462"
       inkscape:export-xdpi="1843.1986"
       inkscape:export-ydpi="1843.1986" />
    <path
       inkscape:connector-curvature="0"
       style="color:#000000;clip-rule:nonzero;display:inline;overflow:visible;visibility:visible;opacity:1;isolation:auto;mix-blend-mode:normal;color-interpolation:sRGB;color-interpolation-filters:linearRGB;solid-color:#000000;solid-opacity:1;fill:#91efe9;fill-opacity:1;fill-rule:nonzero;stroke:none;stroke-width:1;stroke-linecap:round;stroke-linejoin:round;stroke-miterlimit:3;stroke-dasharray:none;stroke-dashoffset:0;stroke-opacity:1;color-rendering:auto;image-rendering:auto;shape-rendering:auto;text-rendering:auto;enable-background:accumulate"
       d="m 148.42921,935.88083 a 50,50 0 0 1 -0.81054,-0.96875 50,50 0 0 1 -2.81055,-4.13281 50,50 0 0 1 -0.55664,-0.93555 50,50 0 0 0 -2.29102,4.44141 50,50 0 0 0 -1.83593,4.64844 50,50 0 0 0 -1.36133,4.80859 50,50 0 0 0 -0.87696,4.91992 50,50 0 0 0 -0.3789,4.98438 50,50 0 0 0 -0.0176,1.18164 l 10.93945,-18.94727 z"
       id="path4572"
       inkscape:export-xdpi="1843.1986"
       inkscape:export-ydpi="1843.1986" />
    <path
       inkscape:connector-curvature="0"
       style="color:#000000;clip-rule:nonzero;display:inline;overflow:visible;visibility:visible;opacity:1;isolation:auto;mix-blend-mode:normal;color-interpolation:sRGB;color-interpolation-filters:linearRGB;solid-color:#000000;solid-opacity:1;fill:#91efb2;fill-opacity:1;fill-rule:nonzero;stroke:none;stroke-width:1;stroke-linecap:round;stroke-linejoin:round;stroke-miterlimit:3;stroke-dasharray:none;stroke-dashoffset:0;stroke-opacity:1;color-rendering:auto;image-rendering:auto;shape-rendering:auto;text-rendering:auto;enable-background:accumulate"
       d="m 148.42921,935.88083 -10.93945,18.94727 a 50,50 0 0 0 4.99219,-0.25977 50,50 0 0 0 4.93945,-0.75586 50,50 0 0 0 4.83984,-1.24414 50,50 0 0 0 4.69141,-1.72265 50,50 0 0 0 4.49805,-2.18164 50,50 0 0 0 1.05468,-0.59571 50,50 0 0 1 -4.19726,-2.71289 50,50 0 0 1 -3.90625,-3.11914 50,50 0 0 1 -3.57617,-3.49218 50,50 0 0 1 -2.39649,-2.86329 z"
       id="path4460"
       inkscape:export-xdpi="1843.1986"
       inkscape:export-ydpi="1843.1986" />
    <path
       style="color:#000000;clip-rule:nonzero;display:inline;overflow:visible;visibility:visible;opacity:1;isolation:auto;mix-blend-mode:normal;color-interpolation:sRGB;color-interpolation-filters:linearRGB;solid-color:#000000;solid-opacity:1;fill:#91d3ef;fill-opacity:1;fill-rule:nonzero;stroke:none;stroke-width:1;stroke-linecap:round;stroke-linejoin:round;stroke-miterlimit:3;stroke-dasharray:none;stroke-dashoffset:0;stroke-opacity:1;color-rendering:auto;image-rendering:auto;shape-rendering:auto;text-rendering:auto;enable-background:accumulate"
       d="m 137.48978,904.82813 a 50,50 0 0 0 0.25976,4.99024 50,50 0 0 0 0.75586,4.9414 50,50 0 0 0 1.24414,4.83985 50,50 0 0 0 1.72266,4.6914 50,50 0 0 0 2.18359,4.4961 50,50 0 0 0 0.59571,1.05664 50,50 0 0 1 2.71289,-4.19922 50,50 0 0 1 3.11719,-3.90625 50,50 0 0 1 3.49218,-3.57422 50,50 0 0 1 3.83203,-3.20898 50,50 0 0 1 4.13282,-2.81055 50,50 0 0 1 0.93554,-0.55469 50,50 0 0 0 -4.4414,-2.29101 50,50 0 0 0 -4.64844,-1.83594 50,50 0 0 0 -4.80859,-1.36328 50,50 0 0 0 -4.92188,-0.875 50,50 0 0 0 -4.98242,-0.38086 50,50 0 0 0 -1.18164,-0.0156 z"
       id="path4454"
       inkscape:connector-curvature="0"
       inkscape:export-xdpi="1843.1986"
       inkscape:export-ydpi="1843.1986" />
    <path
       inkscape:connector-curvature="0"
       style="color:#000000;clip-rule:nonzero;display:inline;overflow:visible;visibility:visible;opacity:1;isolation:auto;mix-blend-mode:normal;color-interpolation:sRGB;color-interpolation-filters:linearRGB;solid-color:#000000;solid-opacity:1;fill:#b2ef91;fill-opacity:1;fill-rule:nonzero;stroke:none;stroke-width:1;stroke-linecap:round;stroke-linejoin:round;stroke-miterlimit:3;stroke-dasharray:none;stroke-dashoffset:0;stroke-opacity:1;color-rendering:auto;image-rendering:auto;shape-rendering:auto;text-rendering:auto;enable-background:accumulate"
       d="m 176.53859,935.8613 a 50,50 0 0 0 1.47656,-1.84961 50,50 0 0 0 2.71289,-4.19726 50,50 0 0 0 -0.55664,-0.9375 50,50 0 0 0 -2.81055,-4.13281 50,50 0 0 0 -3.20703,-3.83204 50,50 0 0 0 -3.57617,-3.49218 50,50 0 0 0 -3.90625,-3.11914 50,50 0 0 0 -4.11523,-2.65821 l 12.43359,21.53516 1.54883,2.68359 z"
       id="path4569"
       inkscape:export-xdpi="1843.1986"
       inkscape:export-ydpi="1843.1986" />
    <path
       inkscape:connector-curvature="0"
       style="color:#000000;clip-rule:nonzero;display:inline;overflow:visible;visibility:visible;opacity:1;isolation:auto;mix-blend-mode:normal;color-interpolation:sRGB;color-interpolation-filters:linearRGB;solid-color:#000000;solid-opacity:1;fill:#91e9ef;fill-opacity:1;fill-rule:nonzero;stroke:none;stroke-width:1;stroke-linecap:round;stroke-linejoin:round;stroke-miterlimit:3;stroke-dasharray:none;stroke-dashoffset:0;stroke-opacity:1;color-rendering:auto;image-rendering:auto;shape-rendering:auto;text-rendering:auto;enable-background:accumulate"
       d="m 162.44288,911.6074 a 50,50 0 0 0 -0.90429,0.53711 50,50 0 0 0 -4.13281,2.81054 50,50 0 0 0 -3.83204,3.20899 50,50 0 0 0 -3.49218,3.57422 50,50 0 0 0 -3.11719,3.90625 50,50 0 0 0 -2.71289,4.19921 50,50 0 0 0 0.55664,0.93555 50,50 0 0 0 2.81055,4.13281 50,50 0 0 0 0.81054,0.96875 l 1.56055,-2.70312 12.45312,-21.57031 z"
       id="path4567"
       inkscape:export-xdpi="1843.1986"
       inkscape:export-ydpi="1843.1986" />
    <path
       inkscape:connector-curvature="0"
       style="color:#000000;clip-rule:nonzero;display:inline;overflow:visible;visibility:visible;opacity:1;isolation:auto;mix-blend-mode:normal;color-interpolation:sRGB;color-interpolation-filters:linearRGB;solid-color:#000000;solid-opacity:1;fill:#91ef9c;fill-opacity:1;fill-rule:nonzero;stroke:none;stroke-width:1;stroke-linecap:round;stroke-linejoin:round;stroke-miterlimit:3;stroke-dasharray:none;stroke-dashoffset:0;stroke-opacity:1;color-rendering:auto;image-rendering:auto;shape-rendering:auto;text-rendering:auto;enable-background:accumulate"
       d="m 162.44288,911.6074 -12.45312,21.57031 -1.56055,2.70312 a 50,50 0 0 0 2.39649,2.86329 50,50 0 0 0 3.57617,3.49218 50,50 0 0 0 3.90625,3.11914 50,50 0 0 0 4.19726,2.71289 50,50 0 0 0 0.93555,-0.55664 50,50 0 0 0 4.13281,-2.81054 50,50 0 0 0 3.83204,-3.20899 50,50 0 0 0 3.49218,-3.57422 50,50 0 0 0 1.64063,-2.05664 l -1.54883,-2.68359 -12.43359,-21.53516 a 50,50 0 0 0 -0.082,-0.0527 50,50 0 0 0 -0.0312,0.0176 z"
       id="path4458"
       inkscape:export-xdpi="1843.1986"
       inkscape:export-ydpi="1843.1986" />
    <path
       style="color:#000000;clip-rule:nonzero;display:inline;overflow:visible;visibility:visible;opacity:1;isolation:auto;mix-blend-mode:normal;color-interpolation:sRGB;color-interpolation-filters:linearRGB;solid-color:#000000;solid-opacity:1;fill:#efde91;fill-opacity:1;fill-rule:nonzero;stroke:none;stroke-width:1;stroke-linecap:round;stroke-linejoin:round;stroke-miterlimit:3;stroke-dasharray:none;stroke-dashoffset:0;stroke-opacity:1;color-rendering:auto;image-rendering:auto;shape-rendering:auto;text-rendering:auto;enable-background:accumulate"
       d="m 187.48976,954.82817 0,-50.00005 a 50,50 0 0 1 -0.0176,1.18164 50,50 0 0 1 -0.37891,4.98438 50,50 0 0 1 -0.87695,4.91992 50,50 0 0 1 -1.36133,4.80859 50,50 0 0 1 -1.83593,4.64844 50,50 0 0 1 -2.29102,4.44336 50,50 0 0 1 0.5957,1.05274 50,50 0 0 1 2.18164,4.49609 50,50 0 0 1 1.72266,4.69141 50,50 0 0 1 1.24609,4.84178 50,50 0 0 1 0.75586,4.93947 50,50 0 0 1 0.25977,4.99223 z"
       id="path4466-6-3"
       inkscape:connector-curvature="0"
       inkscape:export-xdpi="1843.1986"
       inkscape:export-ydpi="1843.1986" />
    <path
       style="color:#000000;clip-rule:nonzero;display:inline;overflow:visible;visibility:visible;opacity:1;isolation:auto;mix-blend-mode:normal;color-interpolation:sRGB;color-interpolation-filters:linearRGB;solid-color:#000000;solid-opacity:1;fill:#efe991;fill-opacity:1;fill-rule:nonzero;stroke:none;stroke-width:1;stroke-linecap:round;stroke-linejoin:round;stroke-miterlimit:3;stroke-dasharray:none;stroke-dashoffset:0;stroke-opacity:1;color-rendering:auto;image-rendering:auto;shape-rendering:auto;text-rendering:auto;enable-background:accumulate"
       d="m 180.72804,929.81444 a 50,50 0 0 0 2.29102,-4.44336 50,50 0 0 0 1.83593,-4.64844 50,50 0 0 0 1.36133,-4.80859 50,50 0 0 0 0.87695,-4.91992 50,50 0 0 0 0.37891,-4.98438 50,50 0 0 0 0.0176,-1.18164 50,50 0 0 0 -4.99024,0.25782 50,50 0 0 0 -4.9414,0.75585 50,50 0 0 0 -4.83985,1.2461 50,50 0 0 0 -4.6914,1.72266 50,50 0 0 0 -4.4961,2.18164 50,50 0 0 0 -1.05664,0.59765 50,50 0 0 1 4.19727,2.71095 50,50 0 0 1 3.90625,3.11914 50,50 0 0 1 3.57617,3.49219 50,50 0 0 1 3.20703,3.83203 50,50 0 0 1 2.81055,4.13281 50,50 0 0 1 0.55664,0.9375 z"
       id="path4468-7-1"
       inkscape:connector-curvature="0"
       inkscape:export-xdpi="1843.1986"
       inkscape:export-ydpi="1843.1986" />
  </g>
</svg>
