<?xml version="1.0" encoding="UTF-8" standalone="no"?>
<!-- Created with Inkscape (http://www.inkscape.org/) -->

<svg
   xmlns:dc="http://purl.org/dc/elements/1.1/"
   xmlns:cc="http://creativecommons.org/ns#"
   xmlns:rdf="http://www.w3.org/1999/02/22-rdf-syntax-ns#"
   xmlns:svg="http://www.w3.org/2000/svg"
   xmlns="http://www.w3.org/2000/svg"
   xmlns:sodipodi="http://sodipodi.sourceforge.net/DTD/sodipodi-0.dtd"
   xmlns:inkscape="http://www.inkscape.org/namespaces/inkscape"
   width="364.82553"
   height="120"
   viewBox="0 0 364.8255 120"
   id="svg2"
   version="1.1"
   inkscape:version="0.92.2 5c3e80d, 2017-08-06"
   sodipodi:docname="logo.svg">
  <defs
     id="defs4" />
  <sodipodi:namedview
     id="base"
     pagecolor="#42c2b7"
     bordercolor="#666666"
     borderopacity="1.0"
     inkscape:pageopacity="0"
     inkscape:pageshadow="2"
     inkscape:zoom="1.4142136"
     inkscape:cx="110.01688"
     inkscape:cy="20.879147"
     inkscape:document-units="px"
     inkscape:current-layer="layer1"
     showgrid="false"
     fit-margin-top="0"
     fit-margin-left="0"
     fit-margin-right="0"
     fit-margin-bottom="0"
     inkscape:window-width="1918"
     inkscape:window-height="1050"
     inkscape:window-x="0"
     inkscape:window-y="28"
     inkscape:window-maximized="0"
     units="px"
     showguides="false"
     inkscape:measure-start="398.674,224.146"
     inkscape:measure-end="0,0" />
  <metadata
     id="metadata7">
    <rdf:RDF>
      <cc:Work
         rdf:about="">
        <dc:format>image/svg+xml</dc:format>
        <dc:type
           rdf:resource="http://purl.org/dc/dcmitype/StillImage" />
        <dc:title />
      </cc:Work>
    </rdf:RDF>
  </metadata>
  <g
     inkscape:groupmode="layer"
     id="layer3"
     inkscape:label="縁取り"
     transform="translate(-95.700846,239.53913)"
     style="display:inline">
    <path
       style="color:#000000;clip-rule:nonzero;display:inline;overflow:visible;visibility:visible;opacity:1;isolation:auto;mix-blend-mode:normal;color-interpolation:sRGB;color-interpolation-filters:linearRGB;solid-color:#000000;solid-opacity:1;fill:#ffffff;fill-opacity:1;fill-rule:nonzero;stroke:#ffffff;stroke-width:11.18718052;stroke-linecap:round;stroke-linejoin:round;stroke-miterlimit:4;stroke-dasharray:none;stroke-dashoffset:0;stroke-opacity:1;color-rendering:auto;image-rendering:auto;shape-rendering:auto;text-rendering:auto;enable-background:accumulate"
       d="m 367.15524,-233.94554 -5.63574,54.7326 0.28718,1.14868 -5.64509,18.04339 c -0.27539,-9.72771 -2.06199,-16.7147 -5.37042,-20.94319 -3.55497,-4.6124 -9.29055,-6.91864 -17.2084,-6.91864 -6.35585,0 -13.08882,2.70818 -20.19874,8.12507 l 0,-15.3652 -13.73582,0 0,10.45832 -13.73426,0 0,12.06743 13.73426,0 0,5.06763 c -4.52447,4.50509 -10.04484,10.4595 -16.56227,17.86078 l 10.09937,9.25034 c 1.18498,-1.2872 3.33887,-3.61939 6.4629,-6.99823 l 0,22.28384 13.73582,0 0,-36.36302 c 4.84767,-4.61242 8.75222,-7.80357 11.71471,-9.57341 2.96244,-1.82352 5.52106,-2.73436 7.67558,-2.73436 2.26223,-1e-5 3.95831,0.40193 5.08948,1.20643 1.1311,0.75083 1.96634,2.25164 2.50495,4.50421 0.53869,2.19893 0.83577,5.55211 0.8896,10.05723 -2.58544,-1.12629 -5.14402,-1.69026 -7.67558,-1.69026 -5.38629,0 -9.69558,1.47482 -12.92738,4.42462 -3.23177,2.94979 -4.84756,6.8394 -4.84756,11.66632 0,4.82694 1.61579,8.71499 4.84756,11.66476 3.28568,2.9498 7.59496,4.42462 12.92738,4.42462 5.6401,0 10.31094,-1.71035 14.01987,-5.11913 l -0.0328,0.10612 2.16159,0.14202 c 0.16064,0.23749 0.21866,0.31598 0.41359,0.60712 0.70022,0.96538 1.23829,1.71579 1.61533,2.25211 l 2.79524,-2.54084 42.57777,2.80772 0.88804,-2.83737 3.84248,0 0,-12.2828 16.81667,-53.75091 -36.84685,-2.42847 3.24473,-31.50921 -17.92322,-1.84632 z m -219.40484,4.40745 -14.54272,4.02196 c 0.4309,1.3408 1.07814,3.40558 1.93997,6.19446 0.9157,2.73526 1.42649,4.29109 1.53417,4.66653 -2.80087,0.91176 -5.03505,1.66218 -6.70481,2.25211 -1.61588,-5.20233 -3.09833,-9.84079 -4.44491,-13.91687 l -14.54271,4.42462 c 1.34659,4.02242 2.90934,8.95584 4.68682,14.80179 -1.1311,0.42908 -3.31228,1.28801 -6.54407,2.57517 -3.2318,1.28718 -5.84497,2.33254 -7.83789,3.13703 l 5.25179,12.87119 c 7.91786,-3.16432 12.30745,-4.90658 13.16929,-5.22838 3.6088,12.22821 6.89499,24.29588 9.85746,36.20227 l 14.94693,-3.62086 c -3.44723,-13.46175 -6.94864,-26.14532 -10.50359,-38.05171 0.80794,-0.26818 1.93869,-0.64415 3.39299,-1.12683 1.50817,-0.53634 2.61316,-0.93829 3.31339,-1.20644 0.21544,0.80449 0.61862,2.19832 1.21111,4.18272 0.5925,1.93075 1.05025,3.40559 1.37343,4.42461 l 13.73582,-4.02195 -1.13151,-3.94236 c -0.48478,-1.93078 -0.86223,-3.43155 -1.13152,-4.50422 l 0.64614,0 c 4.84766,0 7.27291,2.41323 7.27291,7.24015 0,2.2526 -0.83518,4.07589 -2.50494,5.47029 -1.66974,1.34083 -3.79787,2.01176 -6.38331,2.01176 -2.15451,0 -4.5782,-0.16202 -7.27136,-0.48382 l -1.21267,13.51577 c 3.07017,0.53629 6.43667,0.80376 10.09937,0.80376 6.89445,0 12.38907,-1.95624 16.48267,-5.8714 4.09357,-3.91517 6.13984,-9.33309 6.13984,-16.25169 0,-6.06048 -1.88404,-10.91443 -5.65446,-14.56144 -3.71655,-3.70061 -8.56549,-5.54989 -14.54427,-5.54989 -2.20837,0 -4.46986,0.21395 -6.78598,0.64302 -1.07725,-3.647 -2.18227,-7.34706 -3.31338,-11.10135 z m 137.41753,10.23359 c -22.94564,1.07264 -45.43338,1.60909 -67.46332,1.60909 l 0,13.67652 c 9.04898,-1e-5 18.25868,-0.16049 27.63084,-0.48226 l 0,0.16075 c -3.71655,2.78888 -6.67831,6.16801 -8.88669,10.13683 -2.15451,3.96882 -3.23224,7.80337 -3.23224,11.504 1e-5,8.25941 2.96332,14.88317 8.88826,19.87098 5.97878,4.98781 13.92284,7.48205 23.83362,7.48205 4.03975,0 8.07922,-0.4035 12.11893,-1.20799 l -1.6965,-13.91686 c -3.932,0.69725 -7.13629,1.04567 -9.61398,1.04567 -5.00925,0 -9.10334,-1.34031 -12.28124,-4.02195 -3.12408,-2.73525 -4.68681,-6.35585 -4.68681,-10.86099 0,-5.84593 3.01635,-10.6999 9.049,-14.56145 6.03268,-3.86154 14.94836,-6.11427 26.74436,-6.75788 l -0.40423,-13.67651 z m -94.74612,21.59869 c -7.27152,18.02053 -15.89011,40.01006 -25.85475,65.96815 l 13.73582,4.82729 c 4.41677,-10.45834 7.91817,-17.61854 10.50359,-21.48008 2.58545,-3.91517 4.87421,-5.87295 6.86713,-5.87295 0.75408,0 1.37404,0.48295 1.85882,1.44834 0.48475,0.96535 0.9152,2.86965 1.29226,5.7122 0.96953,6.75767 2.77326,11.55658 5.41255,14.39913 2.69315,2.78887 6.572,4.18427 11.63511,4.18427 3.28565,0 6.05946,-0.72444 8.32171,-2.17251 2.26224,-1.4481 4.41612,-4.10278 6.46291,-7.96432 2.04678,-3.91514 3.98696,-9.38658 5.81833,-16.41244 l -13.3316,-3.61929 c -2.58542,9.92203 -4.87417,14.88294 -6.86713,14.88294 -0.80792,0 -1.45519,-0.53643 -1.93997,-1.60909 -0.48475,-1.12628 -0.88792,-3.32552 -1.2111,-6.59713 -0.64635,-6.54313 -1.912,-11.10213 -3.79722,-13.67652 -1.8852,-2.57434 -4.68634,-3.8612 -8.40287,-3.8612 -1.6159,0 -3.74403,0.56398 -6.38331,1.69026 l -0.0812,-0.0812 c 3.01631,-7.7767 6.3828,-16.35828 10.09937,-25.74394 l -14.13849,-4.02195 z m 248.64321,31.89002 0,9.27686 -5.12537,0 0,5.51712 5.12537,0 0,9.61867 c 0,3.67806 0.66788,6.23248 2.00239,7.66466 1.36708,1.39961 3.71098,2.09915 7.03101,2.09915 2.31099,0 4.40961,-0.21051 6.29747,-0.63365 l 0,-5.90885 c -1.36706,0.45569 -2.8152,0.68359 -4.34502,0.68359 -1.30196,0 -2.14868,-0.27696 -2.53927,-0.8303 -0.35805,-0.55334 -0.53689,-1.8543 -0.53689,-3.9049 l 0,-8.78837 7.95807,0 0,-5.51712 -7.95807,0 0,-9.27686 -7.90969,0 z m -20.24554,7.81136 c -4.03612,0 -7.12863,1.13951 -9.27688,3.41796 -2.11569,2.24589 -3.17449,5.50142 -3.17449,9.76537 0,4.2965 1.18858,7.56785 3.56467,9.81376 2.40864,2.24589 5.82718,3.36801 10.25387,3.36801 2.70159,0 5.54881,-0.39091 8.54334,-1.1721 l 0,-5.66225 c -3.09218,0.91137 -5.55005,1.36718 -7.3728,1.36718 -2.311,0 -4.03609,-0.40831 -5.17532,-1.22204 -1.10666,-0.84627 -1.77298,-2.24536 -2.00083,-4.19831 l 16.25793,0 c 0.1302,-0.91138 0.19509,-1.70904 0.19509,-2.39257 0,-8.7232 -3.93767,-13.08501 -11.81458,-13.08501 z m 0.1467,5.32203 c 2.83183,0 4.26258,1.82322 4.29508,5.46873 l -9.08022,0 c 0.16275,-1.9855 0.61855,-3.38458 1.36718,-4.19831 0.74863,-0.84628 1.88814,-1.27042 3.41796,-1.27042 z m -84.57653,4.62126 c 1.88522,0 3.85113,1.04692 5.89793,3.13859 -0.53862,2.03803 -1.34654,3.43185 -2.42378,4.18271 -1.02344,0.75085 -2.4497,1.12683 -4.28103,1.12683 -1.50816,0 -2.69348,-0.37598 -3.5553,-1.12683 -0.8618,-0.80447 -1.29227,-1.90331 -1.29227,-3.29778 0,-1.17992 0.48351,-2.14581 1.45302,-2.89668 0.96954,-0.75084 2.37009,-1.12684 4.20143,-1.12684 z"
       id="rect4382-5"
       inkscape:connector-curvature="0" />
  </g>
  <g
     inkscape:label="レイヤー 1"
     inkscape:groupmode="layer"
     id="layer1"
     transform="translate(-330.51148,68.318862)"
     style="display:inline">
    <path
       style="color:#000000;clip-rule:nonzero;display:inline;overflow:visible;visibility:visible;opacity:1;isolation:auto;mix-blend-mode:normal;color-interpolation:sRGB;color-interpolation-filters:linearRGB;solid-color:#000000;solid-opacity:1;fill:#f1ebd4;fill-opacity:1;fill-rule:nonzero;stroke:none;stroke-width:3.43606281;stroke-linecap:round;stroke-linejoin:round;stroke-miterlimit:4;stroke-dasharray:none;stroke-dashoffset:0;stroke-opacity:1;color-rendering:auto;image-rendering:auto;shape-rendering:auto;text-rendering:auto;enable-background:accumulate"
       d="M 652.69978,-28.056791 631.15292,41.92914 582.38048,38.66113 603.92729,-31.32476 Z"
       id="rect4382-6-7"
       inkscape:connector-curvature="0" />
    <path
       style="color:#000000;font-style:normal;font-variant:normal;font-weight:normal;font-stretch:normal;font-size:medium;line-height:normal;font-family:sans-serif;font-variant-ligatures:normal;font-variant-position:normal;font-variant-caps:normal;font-variant-numeric:normal;font-variant-alternates:normal;font-feature-settings:normal;text-indent:0;text-align:start;text-decoration:none;text-decoration-line:none;text-decoration-style:solid;text-decoration-color:#000000;letter-spacing:normal;word-spacing:normal;text-transform:none;writing-mode:lr-tb;direction:ltr;text-orientation:mixed;dominant-baseline:auto;baseline-shift:baseline;text-anchor:start;white-space:normal;shape-padding:0;clip-rule:nonzero;display:inline;overflow:visible;visibility:visible;opacity:1;isolation:auto;mix-blend-mode:normal;color-interpolation:sRGB;color-interpolation-filters:linearRGB;solid-color:#000000;solid-opacity:1;vector-effect:none;fill:#ababab;fill-opacity:1;fill-rule:nonzero;stroke:none;stroke-width:0.95346969;stroke-linecap:butt;stroke-linejoin:miter;stroke-miterlimit:10;stroke-dasharray:none;stroke-dashoffset:0;stroke-opacity:1;color-rendering:auto;image-rendering:auto;shape-rendering:auto;text-rendering:auto;enable-background:accumulate"
       d="m 628.43295,34.60105 0.29275,-0.95104 -39.01826,-2.61272 -0.29275,0.95105 z m 0.46492,-1.51041 0.13386,-0.43457 -39.01826,-2.61272 -0.13377,0.43457 z m 0.46253,-1.50255 0.13387,-0.43465 -39.01825,-2.61271 -0.13379,0.43464 z m 0.76667,-2.49071 0.30355,-0.98616 -39.01826,-2.61271 -0.30356,0.98615 z m 0.46255,-1.50263 0.30354,-0.98608 -39.01826,-2.61271 -0.30354,0.98608 z m 0.45111,-1.46551 0.63052,-2.04835 -39.01825,-2.61275 -0.63053,2.04835 z m 0.78468,-2.54918 0.13791,-0.44821 -39.01825,-2.61275 -0.13796,0.44825 z m 0.46255,-1.50266 0.13791,-0.44822 -39.01825,-2.61271 -0.13796,0.44821 z m 0.30115,-0.97826 0.30418,-0.98816 -39.01826,-2.61271 -0.30417,0.98816 z m 0.92267,-2.99739 0.30417,-0.98816 -39.01825,-2.61275 -0.30417,0.98816 z m 0.92989,-3.02086 0.1384,-0.45022 -39.01825,-2.61271 -0.13859,0.45021 z m 0.30595,-0.99395 0.14105,-0.458 -39.01826,-2.61271 -0.141,0.458 z m 0.46253,-1.50255 0.1384,-0.45021 -39.01825,-2.61272 -0.13859,0.45022 z m 0.44692,-1.45194 0.63051,-2.04835 -39.01826,-2.61271 -0.63052,2.04835 z m 0.78467,-2.54918 0.13792,-0.44821 -39.01826,-2.61271 -0.13796,0.44821 z m 0.46014,-1.49484 0.14056,-0.45604 -39.01826,-2.61271 -0.14036,0.456 z m 0.30353,-0.98608 0.30418,-0.98815 -39.01826,-2.61272 -0.30417,0.98816 z m 0.62151,-2.0191 0.13792,-0.44825 -39.01826,-2.61271 -0.13795,0.44821 z m 0.7643,-2.48292 0.30115,-0.97829 -39.01825,-2.61271 -0.30114,0.97829 z m 0.92686,-3.01096 0.14105,-0.45804 -39.01826,-2.612713 -0.141,0.458003 z m 0.30833,-1.00176 0.13841,-0.45022 -39.01826,-2.612713 -0.13859,0.450217 z m 0.4607,-1.496735 0.1406,-0.456113 -39.01826,-2.612712 -0.14039,0.456113 z m 0.30354,-0.986154 0.30417,-0.988158 -39.01825,-2.61275 -0.30417,0.988158 z m 0.62152,-2.019137 0.13791,-0.448215 -39.01824,-2.612749 -0.13796,0.448252 z m 0.75948,-2.467238 0.46493,-1.510451 -39.01825,-2.612711 -0.46495,1.51045 z m 0.77751,-2.525821 0.14102,-0.457927 -39.01826,-2.612712 -0.14094,0.45789 z m 0.45832,-1.488869 0.30119,-0.978406 -39.01826,-2.612712 -0.30117,0.978368 z m 0.47154,-1.53188 0.2922,-0.949153 -39.01826,-2.612712 -0.29216,0.949153 z m 0.76608,-2.488706 0.45114,-1.465625 -39.01826,-2.612712 -0.45114,1.465625 z m 0.62152,-2.019137 0.13383,-0.434532 -39.01824,-2.61275 -0.13379,0.43457 z m 0.30595,-0.99394 0.29273,-0.951043 -39.01826,-2.612711 -0.29275,0.951042 z"
       id="path14"
       inkscape:connector-curvature="0" />
    <path
       style="font-style:normal;font-variant:normal;font-weight:900;font-stretch:normal;font-size:medium;line-height:125%;font-family:'M+ 1c';-inkscape-font-specification:'M+ 1c Heavy';letter-spacing:-2.4000001px;word-spacing:0px;fill:#d5e0a0;fill-opacity:1;stroke:none;stroke-width:0.79908437px;stroke-linecap:butt;stroke-linejoin:miter;stroke-opacity:1"
       inkscape:connector-curvature="0"
       id="path4180"
       d="m 380.13766,-6.4292336 1.21188,-13.5154064 q 4.03974,0.4827 7.2715,0.4827 3.87817,0 6.38278,-2.011236 2.50464,-2.091606 2.50464,-5.470512 0,-7.24037 -7.2715,-7.24037 h -0.64633 q 0.40393,1.60899 1.13109,4.505161 0.80793,2.815684 1.13111,3.941975 l -13.73505,4.022414 q -0.48476,-1.528538 -1.37351,-4.424674 -0.88875,-2.976599 -1.21191,-4.183317 -1.05033,0.402211 -3.31259,1.206718 -2.18143,0.724031 -3.39335,1.126302 5.33243,17.859582 10.50327,38.052212 l -14.94698,3.620172 q -4.4437,-17.8595757 -9.85689,-36.201896 -1.29276,0.482699 -13.16954,5.22918 l -5.25164,-12.871809 q 2.98938,-1.206742 7.83709,-3.137503 4.84768,-1.930749 6.54432,-2.574376 -2.66621,-8.768919 -4.68609,-14.802559 l 14.54304,-4.424674 q 2.01986,6.114115 4.44368,13.917601 2.50464,-0.884887 6.70595,-2.252521 -0.16153,-0.563162 -1.53507,-4.666052 -1.29274,-4.183317 -1.9391,-6.194523 l 14.54304,-4.022434 q 1.69667,5.631445 3.31255,11.101939 3.47417,-0.6436 6.78673,-0.6436 8.96818,0 14.543,5.550924 5.65562,5.470513 5.65562,14.561227 0,10.377908 -6.14037,16.250657 -6.14039,5.8727346 -16.48207,5.8727346 -5.49405,0 -10.0993,-0.8044542 z" />
    <path
       style="font-style:normal;font-variant:normal;font-weight:900;font-stretch:normal;font-size:medium;line-height:125%;font-family:'M+ 1c';-inkscape-font-specification:'M+ 1c Heavy';letter-spacing:-2.4000001px;word-spacing:0px;fill:#c6e0a0;fill-opacity:1;stroke:none;stroke-width:0.79908437px;stroke-linecap:butt;stroke-linejoin:miter;stroke-opacity:1"
       inkscape:connector-curvature="0"
       id="path4182"
       d="m 435.73555,1.6711005 q 5.5748,0 8.4026,3.8615193 2.82783,3.8615751 3.79734,13.6762812 0.48478,4.9074 1.21192,6.596817 0.72717,1.608988 1.93905,1.608988 2.98944,0 6.86756,-14.883042 l 13.33111,3.620188 q -2.74705,10.538796 -5.81723,16.411514 -3.07019,5.792315 -6.46355,7.964458 -3.39337,2.172119 -8.32185,2.172119 -7.59466,0 -11.63439,-4.183318 -3.95893,-4.263819 -5.41322,-14.400324 -0.56559,-4.263818 -1.29271,-5.711855 -0.72717,-1.448084 -1.85828,-1.448084 -2.98939,0 -6.86756,5.872758 -3.87813,5.792307 -10.50326,21.479811 l -13.73505,-4.826948 q 14.94696,-38.93714392 25.85423,-65.967937 l 14.13903,4.022458 q -5.57485,14.0784795 -10.09931,25.7435369 l 0.0807,0.080276 q 3.95892,-1.6894161 6.38278,-1.6894161 z" />
    <path
       style="font-style:normal;font-variant:normal;font-weight:900;font-stretch:normal;font-size:medium;line-height:125%;font-family:'M+ 1c';-inkscape-font-specification:'M+ 1c Heavy';letter-spacing:-2.4000001px;word-spacing:0px;fill:#b7e0a0;fill-opacity:1;stroke:none;stroke-width:0.79908437px;stroke-linecap:butt;stroke-linejoin:miter;stroke-opacity:1"
       inkscape:connector-curvature="0"
       id="path4184"
       d="m 480.14622,-33.120767 v -0.160809 q -14.05824,0.482664 -27.6317,0.482664 v -13.676316 q 33.0449,0 67.46336,-1.608965 l 0.40399,13.676268 q -17.69399,0.96541 -26.74299,6.757717 -9.04899,5.792307 -9.04899,14.561198 0,6.7577202 4.68613,10.8605869 4.76685,4.0224628 12.28074,4.0224628 3.71652,0 9.61453,-1.0458736 l 1.6967,13.9176359 q -6.05957,1.206738 -12.11919,1.206738 -14.86617,0 -23.83434,-7.4817233 -8.88741,-7.48171501 -8.88741,-19.8708387 0,-5.550935 3.23176,-11.504169 3.31258,-5.953211 8.88741,-10.136528 z" />
    <path
       style="font-style:normal;font-variant:normal;font-weight:900;font-stretch:normal;font-size:medium;line-height:125%;font-family:'M+ 1c';-inkscape-font-specification:'M+ 1c Heavy';letter-spacing:-2.4000001px;word-spacing:0px;fill:#a8e0a0;fill-opacity:1;stroke:none;stroke-width:0.79908437px;stroke-linecap:butt;stroke-linejoin:miter;stroke-opacity:1"
       inkscape:connector-curvature="0"
       id="path4186"
       d="m 568.39256,-16.662688 q 11.87679,0 17.20924,6.9185968 5.41322,6.9186162 5.41322,23.6519142 0,6.275034 -1.2119,11.182347 1.85826,2.25257 6.05956,8.125353 l -9.29133,8.447129 q -0.56557,-0.804478 -1.6159,-2.252539 -0.96956,-1.448109 -1.37352,-2.011224 -5.81721,6.274994 -15.18937,6.274994 -7.99862,0 -12.92713,-4.424698 -4.84766,-4.42465 -4.84766,-11.665065 0,-7.240384 4.84766,-11.665058 4.8477,-4.424714 12.92713,-4.424714 3.79735,0 7.6755,1.689425 -0.0807,-6.757673 -0.88879,-10.0560695 -0.8079,-3.37885632 -2.50456,-4.5051098 -1.69675,-1.2067452 -5.0901,-1.2067452 -3.23179,0 -7.67545,2.73528172 -4.44373,2.65474998 -11.71523,9.57337428 V 46.087302 H 534.45886 V 23.80302 q -4.68605,5.068257 -6.46353,6.999052 L 517.89601,21.550434 Q 527.67215,10.448515 534.45886,3.6908662 V -1.3774063 H 520.72381 V -13.444739 h 13.73505 v -10.458328 h 13.73507 v 15.365713 q 10.66487,-8.125334 20.19863,-8.125334 z m 6.70595,42.959635 q -3.0702,-3.137501 -5.89802,-3.137501 -2.74701,0 -4.20132,1.126261 -1.45427,1.126302 -1.45427,2.89617 0,2.091707 1.2927,3.298412 1.29272,1.126286 3.55496,1.126286 2.747,0 4.28215,-1.126286 1.61586,-1.126301 2.4238,-4.183342 z" />
    <g
       id="g6471">
      <path
         style="color:#000000;font-style:normal;font-variant:normal;font-weight:900;font-stretch:normal;font-size:medium;line-height:125%;font-family:'M+ 1c';-inkscape-font-specification:'M+ 1c Heavy';letter-spacing:-2.4000001px;word-spacing:0px;clip-rule:nonzero;display:inline;overflow:visible;visibility:visible;opacity:1;isolation:auto;mix-blend-mode:normal;color-interpolation:sRGB;color-interpolation-filters:linearRGB;solid-color:#000000;solid-opacity:1;fill:#a0e0a8;fill-opacity:1;fill-rule:nonzero;stroke:none;stroke-width:7.99084377;stroke-linecap:round;stroke-linejoin:round;stroke-miterlimit:4;stroke-dasharray:none;stroke-dashoffset:0;stroke-opacity:1;color-rendering:auto;image-rendering:auto;shape-rendering:auto;text-rendering:auto;enable-background:accumulate"
         d="m 596.33005,-7.9933294 6.41682,25.6368554 11.5062,-23.791426 5.63544,-54.731695 -17.92302,-1.84544 z"
         id="path4194"
         inkscape:connector-curvature="0" />
      <path
         inkscape:connector-curvature="0"
         id="path4194-0"
         d="M 614.25303,-6.1474125 602.74688,17.64355 596.33001,-7.9928339 Z"
         inkscape:transform-center-x="2.5275903"
         style="color:#000000;font-style:normal;font-variant:normal;font-weight:900;font-stretch:normal;font-size:45px;line-height:125%;font-family:'M+ 1c';-inkscape-font-specification:'M+ 1c Heavy';letter-spacing:-2.4000001px;word-spacing:0px;clip-rule:nonzero;display:inline;overflow:visible;visibility:visible;opacity:1;isolation:auto;mix-blend-mode:normal;color-interpolation:sRGB;color-interpolation-filters:linearRGB;solid-color:#000000;solid-opacity:1;fill:#e0b9a0;fill-opacity:1;fill-rule:nonzero;stroke:none;stroke-width:7.99084377;stroke-linecap:round;stroke-linejoin:round;stroke-miterlimit:4;stroke-dasharray:none;stroke-dashoffset:0;stroke-opacity:1;color-rendering:auto;image-rendering:auto;shape-rendering:auto;text-rendering:auto;enable-background:accumulate" />
      <path
         inkscape:connector-curvature="0"
         id="path4194-0-4"
         d="m 606.20646,10.490203 -3.45961,7.153323 -1.92938,-7.7081991 z"
         inkscape:transform-center-x="0.75998865"
         style="color:#000000;font-style:normal;font-variant:normal;font-weight:900;font-stretch:normal;font-size:45px;line-height:125%;font-family:'M+ 1c';-inkscape-font-specification:'M+ 1c Heavy';letter-spacing:-2.4000001px;word-spacing:0px;clip-rule:nonzero;display:inline;overflow:visible;visibility:visible;opacity:1;isolation:auto;mix-blend-mode:normal;color-interpolation:sRGB;color-interpolation-filters:linearRGB;solid-color:#000000;solid-opacity:1;fill:#929292;fill-opacity:1;fill-rule:nonzero;stroke:none;stroke-width:7.99084377;stroke-linecap:round;stroke-linejoin:round;stroke-miterlimit:4;stroke-dasharray:none;stroke-dashoffset:0;stroke-opacity:1;color-rendering:auto;image-rendering:auto;shape-rendering:auto;text-rendering:auto;enable-background:accumulate" />
    </g>
    <path
       style="color:#000000;clip-rule:nonzero;display:inline;overflow:visible;visibility:visible;opacity:1;isolation:auto;mix-blend-mode:normal;color-interpolation:sRGB;color-interpolation-filters:linearRGB;solid-color:#000000;solid-opacity:1;fill:#ec98ba;fill-opacity:1;fill-rule:nonzero;stroke:none;stroke-width:3.19633746;stroke-linecap:round;stroke-linejoin:round;stroke-miterlimit:4;stroke-dasharray:none;stroke-dashoffset:0;stroke-opacity:1;color-rendering:auto;image-rendering:auto;shape-rendering:auto;text-rendering:auto;enable-background:accumulate"
       d="m 607.39089,26.978366 a 5.3441201,5.3441201 0 0 1 -5.34411,5.344124 5.3441201,5.3441201 0 0 1 -5.34413,-5.344124 5.3441201,5.3441201 0 0 1 5.34413,-5.344108 5.3441201,5.3441201 0 0 1 5.34411,5.344108 z"
       id="path4945"
       inkscape:connector-curvature="0" />
    <g
       style="font-style:normal;font-variant:normal;font-weight:800;font-stretch:normal;font-size:41.23685074px;line-height:125%;font-family:'M+ 1c';-inkscape-font-specification:'M+ 1c Ultra-Bold';letter-spacing:0px;word-spacing:0px;fill:#ec98ba;fill-opacity:1;stroke:none;stroke-width:1px;stroke-linecap:butt;stroke-linejoin:miter;stroke-opacity:1"
       id="text4947"
       transform="matrix(1.1839858,0,0,1.1839858,47.454814,-167.65395)">
      <path
         style="stroke:none;stroke-opacity:1;fill:#ec98ba;fill-opacity:1"
         d="m 477.61592,153.17601 h 6.35047 l 0.0825,2.72163 h 0.0825 q 2.6804,-3.134 6.47419,-3.134 3.75255,0 5.40202,2.14432 1.64948,2.10308 1.64948,7.21645 v 12.49476 h -6.47419 v -12.28858 q 0,-2.47421 -0.65979,-3.38142 -0.65979,-0.94845 -2.39173,-0.94845 -1.44329,0 -2.6804,1.19587 -1.19587,1.15463 -1.19587,2.51545 v 12.90713 h -6.63913 v -21.44316 z"
         id="path5570"
         inkscape:connector-curvature="0" />
      <path
         style="stroke:none;stroke-opacity:1;fill:#ec98ba;fill-opacity:1"
         d="m 508.06031,161.87698 h 7.67006 q -0.0412,-4.61852 -3.62885,-4.61852 -1.93813,0 -2.88658,1.07216 -0.94844,1.03092 -1.15463,3.54636 z m 0,3.95874 q 0.28866,2.47421 1.69071,3.54637 1.44329,1.03092 4.37111,1.03092 2.30926,0 6.22676,-1.15463 v 4.78348 q -3.79379,0.98968 -7.21644,0.98968 -5.60822,0 -8.65974,-2.84534 -3.01029,-2.84535 -3.01029,-8.28861 0,-5.40203 2.68039,-8.24737 2.72163,-2.88658 7.835,-2.88658 9.97932,0 9.97932,11.05148 0,0.86597 -0.16495,2.0206 z"
         id="path5572"
         inkscape:connector-curvature="0" />
      <path
         style="stroke:none;stroke-opacity:1;fill:#ec98ba;fill-opacity:1"
         d="m 535.75859,154.00075 h 6.72161 v 4.65976 h -6.72161 v 7.42263 q 0,2.59792 0.45361,3.29895 0.49484,0.70103 2.14431,0.70103 1.93813,0 3.67008,-0.57732 v 4.98966 q -2.39174,0.53608 -5.31955,0.53608 -4.20616,0 -5.93811,-1.77318 -1.69071,-1.81443 -1.69071,-6.47419 v -8.12366 h -4.32987 v -4.65976 h 4.32987 v -7.83501 h 6.68037 z"
         id="path5574"
         inkscape:connector-curvature="0" />
    </g>
  </g>
</svg>
