<?xml version="1.0" encoding="UTF-8" standalone="no"?>
<!-- Created with Inkscape (http://www.inkscape.org/) -->

<svg
   xmlns:dc="http://purl.org/dc/elements/1.1/"
   xmlns:cc="http://creativecommons.org/ns#"
   xmlns:rdf="http://www.w3.org/1999/02/22-rdf-syntax-ns#"
   xmlns:svg="http://www.w3.org/2000/svg"
   xmlns="http://www.w3.org/2000/svg"
   xmlns:sodipodi="http://sodipodi.sourceforge.net/DTD/sodipodi-0.dtd"
   xmlns:inkscape="http://www.inkscape.org/namespaces/inkscape"
   width="95.412346mm"
   height="24.143087mm"
   viewBox="0 0 338.07525 85.546368"
   id="svg4227"
   version="1.1"
   inkscape:version="0.91 r13725"
   sodipodi:docname="m_contents.svg">
  <defs
     id="defs4229" />
  <sodipodi:namedview
     id="base"
     pagecolor="#444444"
     bordercolor="#666666"
     borderopacity="1.0"
     inkscape:pageopacity="0"
     inkscape:pageshadow="2"
     inkscape:zoom="1.4"
     inkscape:cx="238.03999"
     inkscape:cy="31.849028"
     inkscape:document-units="px"
     inkscape:current-layer="layer3"
     showgrid="false"
     inkscape:window-width="1189"
     inkscape:window-height="1052"
     inkscape:window-x="729"
     inkscape:window-y="26"
     inkscape:window-maximized="0"
     fit-margin-top="0"
     fit-margin-left="0"
     fit-margin-right="0"
     fit-margin-bottom="0" />
  <metadata
     id="metadata4232">
    <rdf:RDF>
      <cc:Work
         rdf:about="">
        <dc:format>image/svg+xml</dc:format>
        <dc:type
           rdf:resource="http://purl.org/dc/dcmitype/StillImage" />
        <dc:title></dc:title>
      </cc:Work>
    </rdf:RDF>
  </metadata>
  <g
     inkscape:label="レイヤー 1"
     inkscape:groupmode="layer"
     id="layer1"
     style="display:inline"
     transform="translate(-198.53488,-216.34917)">
    <text
       xml:space="preserve"
       style="font-style:normal;font-weight:normal;font-size:62.5px;line-height:125%;font-family:Sans;letter-spacing:0px;word-spacing:0px;fill:#000000;fill-opacity:1;stroke:none;stroke-width:1px;stroke-linecap:butt;stroke-linejoin:miter;stroke-opacity:1"
       x="155.71429"
       y="590.93365"
       id="text4827"
       sodipodi:linespacing="125%"><tspan
         sodipodi:role="line"
         id="tspan4829"
         x="155.71429"
         y="590.93365" /></text>
  </g>
  <g
     inkscape:groupmode="layer"
     id="layer3"
     inkscape:label="レイヤー 2"
     style="display:inline"
     transform="translate(-198.53488,-216.34917)">
    <path
       inkscape:connector-curvature="0"
       id="path4791"
       style="font-style:normal;font-variant:normal;font-weight:800;font-stretch:normal;font-size:medium;line-height:125%;font-family:'M+ 1c';-inkscape-font-specification:'M+ 1c Ultra-Bold';letter-spacing:0px;word-spacing:0px;display:inline;fill:#ffffff;fill-opacity:1;stroke:#ffffff;stroke-width:13;stroke-linecap:round;stroke-linejoin:round;stroke-miterlimit:4;stroke-dasharray:none;stroke-opacity:1"
       d="m 291.92265,253.97417 q 5.6875,-2.9375 8.5,-6.875 2.875,-3.9375 3.3125,-9.6875 l -11.8125,0 0,16.5625 z m 21.0625,-12.25 q 7.125,6.4375 13.0625,14.125 l 0,-18.4375 -12.375,0 q -0.1875,2.0625 -0.6875,4.3125 z m -9.125,-18.875 9.9375,0 0,6.1875 22.1875,0 0,39.125 q 0,2.875 -0.125,4.5 -0.0625,1.625 -0.5,3.0625 -0.4375,1.4375 -1,2.0625 -0.5625,0.625 -1.9375,1.0625 -1.375,0.4375 -2.875,0.5 -1.5,0.125 -4.1875,0.125 -3.5,0 -10.4375,-0.3125 l -0.5,-8.375 q 8.25,0.3125 8.8125,0.3125 2.0625,0 2.4375,-0.3125 0.375,-0.375 0.375,-2.25 l 0,-9 -6.125,3.9375 q -5.8125,-8.125 -10.5625,-13 -4.9375,7.8125 -14.375,12.875 l -3.0625,-3.75 0,19.9375 -9.9375,0 0,-50.5 21.875,0 0,-6.1875 z" />
    <path
       inkscape:connector-curvature="0"
       id="path4793"
       style="font-style:normal;font-variant:normal;font-weight:800;font-stretch:normal;font-size:medium;line-height:125%;font-family:'M+ 1c';-inkscape-font-specification:'M+ 1c Ultra-Bold';letter-spacing:0px;word-spacing:0px;display:inline;fill:#ffffff;fill-opacity:1;stroke:#ffffff;stroke-width:13;stroke-linecap:round;stroke-linejoin:round;stroke-miterlimit:4;stroke-dasharray:none;stroke-opacity:1"
       d="m 353.86015,255.70804 q 4,-2.8125 7.6875,-6.4375 l -7.6875,0 0,6.4375 z m 37.25,-0.875 0,-5.5625 -7.625,0 q 4.25,2.9375 7.625,5.5625 z m -10.875,17.1875 q -4,-3.375 -7.75,-7.1875 -3.75,3.8125 -7.75,7.1875 l 15.5,0 z m -19.125,20.625 0,2.75 -10,0 0,-14 q -2.125,1.1875 -4.5,2.4375 l -3.625,-7.6875 q 7,-3.625 12.3125,-7.5 5.375,-3.875 10.8125,-9.125 l 12.75,0 q 5.4375,5.25 10.75,9.125 5.375,3.875 12.375,7.5 l -3.625,7.6875 q -2.375,-1.25 -4.5,-2.4375 l 0,14 -10,0 0,-2.75 -22.75,0 z m 8,-39.8125 q -7.25,8.8125 -19.875,14.875 l -4.0625,-6.8125 q 3.6875,-1.875 8,-4.75 l -9,0 0,-14.5 23.1875,0 0,-5.3125 10.25,0 0,5.3125 23.1875,0 0,14.5 -8.0625,0 q 4.1875,3.375 6.875,5.875 l -5.6875,5.9375 q -8.375,-7.5 -18.625,-14.3125 l 3.75,-4.375 -14.375,0 4.4375,3.5625 z m 14.75,32.6875 0,-6.0625 -22.75,0 0,6.0625 22.75,0 z" />
    <path
       inkscape:connector-curvature="0"
       id="path4795"
       style="font-style:normal;font-variant:normal;font-weight:800;font-stretch:normal;font-size:medium;line-height:125%;font-family:'M+ 1c';-inkscape-font-specification:'M+ 1c Ultra-Bold';letter-spacing:0px;word-spacing:0px;display:inline;fill:#ffffff;fill-opacity:1;stroke:#ffffff;stroke-width:13;stroke-linecap:round;stroke-linejoin:round;stroke-miterlimit:4;stroke-dasharray:none;stroke-opacity:1"
       d="m 408.98515,259.8756 0,-10.125 57.125,0 0,10.125 -57.125,0 z" />
    <path
       inkscape:connector-curvature="0"
       id="path4797"
       style="font-style:normal;font-variant:normal;font-weight:800;font-stretch:normal;font-size:medium;line-height:125%;font-family:'M+ 1c';-inkscape-font-specification:'M+ 1c Ultra-Bold';letter-spacing:0px;word-spacing:0px;display:inline;fill:#ffffff;fill-opacity:1;stroke:#ffffff;stroke-width:13;stroke-linecap:round;stroke-linejoin:round;stroke-miterlimit:4;stroke-dasharray:none;stroke-opacity:1"
       d="m 484.04765,239.88208 4.125,0 0,-1.9375 -4.125,0 0,1.9375 z m 0,5.8125 7.6875,0 0,-1.9375 -7.6875,0 0,1.9375 z m 4.125,5.8125 0,-1.9375 -4.125,0 0,1.9375 4.125,0 z m 0.6875,19.125 0,1.6875 26,0 0,-1.6875 -26,0 z m 0,-5.375 0,1.6875 26,0 0,-1.6875 -26,0 z m 0,-3.6875 26,0 0,-1.6875 -26,0 0,1.6875 z m 36,13.75 5.25,0.5625 q -0.1875,2.9375 -0.25,4.25 -0.0625,1.3125 -0.4375,3.0625 -0.375,1.8125 -0.625,2.375 -0.1875,0.625 -1.125,1.5 -0.9375,0.875 -1.625,1 -0.625,0.1875 -2.5,0.4375 -1.875,0.25 -3.3125,0.25 -1.375,0 -4.4375,0 -3.6875,0 -5.6875,-0.125 -2,-0.125 -3.5,-0.375 -1.4375,-0.1875 -2,-0.875 -0.5625,-0.625 -0.8125,-1.4375 -0.1875,-0.75 -0.1875,-2.25 l 0,-5.8125 -4.3125,0 q -1.8125,5.125 -7.375,7.9375 -5.5,2.875 -16.0625,3.5625 l -2.75,-7.9375 q 12.625,-0.5 15.3125,-3.5625 l -9.5625,0 0,-20.875 -4,0 0,-24.875 27.75,0 0,5.8125 -6.1875,0 0,1.9375 4.0625,0 0,2.875 q 4.5,-5.875 7.125,-13.125 l 8.9375,0.875 q -0.375,1.5 -1.0625,3.5 l 14.5625,0 0,7.6875 -18.0625,0 q -0.75,1.3125 -2.25,3.375 l 18.9375,0 0,7.1875 -23.5625,0 0,-4.375 -4.625,-2.3125 0,4 -4.0625,0 0,1.9375 6.8125,0 0,3.3125 21.625,0 0,20.5 z m -4.3125,2.5625 -7,0 0,2.125 q 0,1.0625 0.375,1.25 0.4375,0.1875 2.9375,0.1875 2.3125,0 2.875,-0.5 0.625,-0.5 0.8125,-3.0625 z" />
    <path
       sodipodi:type="star"
       style="color:#000000;clip-rule:nonzero;display:inline;overflow:visible;visibility:visible;opacity:1;isolation:auto;mix-blend-mode:normal;color-interpolation:sRGB;color-interpolation-filters:linearRGB;solid-color:#000000;solid-opacity:1;fill:#ffffff;fill-opacity:1;fill-rule:nonzero;stroke:#ffffff;stroke-width:13;stroke-linecap:round;stroke-linejoin:round;stroke-miterlimit:4;stroke-dasharray:none;stroke-dashoffset:0;stroke-opacity:1;color-rendering:auto;image-rendering:auto;shape-rendering:auto;text-rendering:auto;enable-background:accumulate"
       id="path4803"
       sodipodi:sides="5"
       sodipodi:cx="100.92253"
       sodipodi:cy="255.24345"
       sodipodi:r1="36.977966"
       sodipodi:r2="18.488983"
       sodipodi:arg1="0.52359878"
       sodipodi:arg2="1.1519173"
       inkscape:flatsided="false"
       inkscape:rounded="0"
       inkscape:randomized="0"
       d="m 132.94639,273.73244 -24.50371,-1.59846 -15.208301,19.27938 -6.05184,-23.79836 -23.035405,-8.5063 20.763468,-13.10974 0.971635,-24.53656 18.884373,15.6961 23.63591,-6.65813 -9.09229,22.81046 z"
       inkscape:transform-center-y="-10.228274"
       inkscape:transform-center-x="-8.4713859"
       transform="matrix(0.8660254,0.5,-0.5,0.8660254,279.03549,-9.89783)" />
    <path
       inkscape:connector-curvature="0"
       id="path4791-2"
       style="font-style:normal;font-variant:normal;font-weight:800;font-stretch:normal;font-size:medium;line-height:125%;font-family:'M+ 1c';-inkscape-font-specification:'M+ 1c Ultra-Bold';letter-spacing:0px;word-spacing:0px;fill:#e0d3a0;fill-opacity:1;stroke:none;stroke-width:1px;stroke-linecap:butt;stroke-linejoin:miter;stroke-opacity:1"
       d="m 291.92265,253.97417 q 5.6875,-2.9375 8.5,-6.875 2.875,-3.9375 3.3125,-9.6875 l -11.8125,0 0,16.5625 z m 21.0625,-12.25 q 7.125,6.4375 13.0625,14.125 l 0,-18.4375 -12.375,0 q -0.1875,2.0625 -0.6875,4.3125 z m -9.125,-18.875 9.9375,0 0,6.1875 22.1875,0 0,39.125 q 0,2.875 -0.125,4.5 -0.0625,1.625 -0.5,3.0625 -0.4375,1.4375 -1,2.0625 -0.5625,0.625 -1.9375,1.0625 -1.375,0.4375 -2.875,0.5 -1.5,0.125 -4.1875,0.125 -3.5,0 -10.4375,-0.3125 l -0.5,-8.375 q 8.25,0.3125 8.8125,0.3125 2.0625,0 2.4375,-0.3125 0.375,-0.375 0.375,-2.25 l 0,-9 -6.125,3.9375 q -5.8125,-8.125 -10.5625,-13 -4.9375,7.8125 -14.375,12.875 l -3.0625,-3.75 0,19.9375 -9.9375,0 0,-50.5 21.875,0 0,-6.1875 z" />
    <path
       inkscape:connector-curvature="0"
       id="path4793-1"
       style="font-style:normal;font-variant:normal;font-weight:800;font-stretch:normal;font-size:medium;line-height:125%;font-family:'M+ 1c';-inkscape-font-specification:'M+ 1c Ultra-Bold';letter-spacing:0px;word-spacing:0px;fill:#dee0a0;fill-opacity:1;stroke:none;stroke-width:1px;stroke-linecap:butt;stroke-linejoin:miter;stroke-opacity:1"
       d="m 353.86015,255.70804 q 4,-2.8125 7.6875,-6.4375 l -7.6875,0 0,6.4375 z m 37.25,-0.875 0,-5.5625 -7.625,0 q 4.25,2.9375 7.625,5.5625 z m -10.875,17.1875 q -4,-3.375 -7.75,-7.1875 -3.75,3.8125 -7.75,7.1875 l 15.5,0 z m -19.125,20.625 0,2.75 -10,0 0,-14 q -2.125,1.1875 -4.5,2.4375 l -3.625,-7.6875 q 7,-3.625 12.3125,-7.5 5.375,-3.875 10.8125,-9.125 l 12.75,0 q 5.4375,5.25 10.75,9.125 5.375,3.875 12.375,7.5 l -3.625,7.6875 q -2.375,-1.25 -4.5,-2.4375 l 0,14 -10,0 0,-2.75 -22.75,0 z m 8,-39.8125 q -7.25,8.8125 -19.875,14.875 l -4.0625,-6.8125 q 3.6875,-1.875 8,-4.75 l -9,0 0,-14.5 23.1875,0 0,-5.3125 10.25,0 0,5.3125 23.1875,0 0,14.5 -8.0625,0 q 4.1875,3.375 6.875,5.875 l -5.6875,5.9375 q -8.375,-7.5 -18.625,-14.3125 l 3.75,-4.375 -14.375,0 4.4375,3.5625 z m 14.75,32.6875 0,-6.0625 -22.75,0 0,6.0625 22.75,0 z" />
    <path
       inkscape:connector-curvature="0"
       id="path4795-1"
       style="font-style:normal;font-variant:normal;font-weight:800;font-stretch:normal;font-size:medium;line-height:125%;font-family:'M+ 1c';-inkscape-font-specification:'M+ 1c Ultra-Bold';letter-spacing:0px;word-spacing:0px;fill:#cfe0a0;fill-opacity:1;stroke:none;stroke-width:1px;stroke-linecap:butt;stroke-linejoin:miter;stroke-opacity:1"
       d="m 408.98515,259.8756 0,-10.125 57.125,0 0,10.125 -57.125,0 z" />
    <path
       inkscape:connector-curvature="0"
       id="path4797-0"
       style="font-style:normal;font-variant:normal;font-weight:800;font-stretch:normal;font-size:medium;line-height:125%;font-family:'M+ 1c';-inkscape-font-specification:'M+ 1c Ultra-Bold';letter-spacing:0px;word-spacing:0px;fill:#c0e0a0;fill-opacity:1;stroke:none;stroke-width:1px;stroke-linecap:butt;stroke-linejoin:miter;stroke-opacity:1"
       d="m 484.04765,239.88208 4.125,0 0,-1.9375 -4.125,0 0,1.9375 z m 0,5.8125 7.6875,0 0,-1.9375 -7.6875,0 0,1.9375 z m 4.125,5.8125 0,-1.9375 -4.125,0 0,1.9375 4.125,0 z m 0.6875,19.125 0,1.6875 26,0 0,-1.6875 -26,0 z m 0,-5.375 0,1.6875 26,0 0,-1.6875 -26,0 z m 0,-3.6875 26,0 0,-1.6875 -26,0 0,1.6875 z m 36,13.75 5.25,0.5625 q -0.1875,2.9375 -0.25,4.25 -0.0625,1.3125 -0.4375,3.0625 -0.375,1.8125 -0.625,2.375 -0.1875,0.625 -1.125,1.5 -0.9375,0.875 -1.625,1 -0.625,0.1875 -2.5,0.4375 -1.875,0.25 -3.3125,0.25 -1.375,0 -4.4375,0 -3.6875,0 -5.6875,-0.125 -2,-0.125 -3.5,-0.375 -1.4375,-0.1875 -2,-0.875 -0.5625,-0.625 -0.8125,-1.4375 -0.1875,-0.75 -0.1875,-2.25 l 0,-5.8125 -4.3125,0 q -1.8125,5.125 -7.375,7.9375 -5.5,2.875 -16.0625,3.5625 l -2.75,-7.9375 q 12.625,-0.5 15.3125,-3.5625 l -9.5625,0 0,-20.875 -4,0 0,-24.875 27.75,0 0,5.8125 -6.1875,0 0,1.9375 4.0625,0 0,2.875 q 4.5,-5.875 7.125,-13.125 l 8.9375,0.875 q -0.375,1.5 -1.0625,3.5 l 14.5625,0 0,7.6875 -18.0625,0 q -0.75,1.3125 -2.25,3.375 l 18.9375,0 0,7.1875 -23.5625,0 0,-4.375 -4.625,-2.3125 0,4 -4.0625,0 0,1.9375 6.8125,0 0,3.3125 21.625,0 0,20.5 z m -4.3125,2.5625 -7,0 0,2.125 q 0,1.0625 0.375,1.25 0.4375,0.1875 2.9375,0.1875 2.3125,0 2.875,-0.5 0.625,-0.5 0.8125,-3.0625 z" />
    <path
       sodipodi:type="star"
       style="color:#000000;clip-rule:nonzero;display:inline;overflow:visible;visibility:visible;opacity:1;isolation:auto;mix-blend-mode:normal;color-interpolation:sRGB;color-interpolation-filters:linearRGB;solid-color:#000000;solid-opacity:1;fill:#e0c4a0;fill-opacity:1;fill-rule:nonzero;stroke:none;stroke-width:14;stroke-linecap:round;stroke-linejoin:round;stroke-miterlimit:4;stroke-dasharray:none;stroke-dashoffset:0;stroke-opacity:1;color-rendering:auto;image-rendering:auto;shape-rendering:auto;text-rendering:auto;enable-background:accumulate"
       id="path4803-7"
       sodipodi:sides="5"
       sodipodi:cx="100.92253"
       sodipodi:cy="255.24345"
       sodipodi:r1="36.977966"
       sodipodi:r2="18.488983"
       sodipodi:arg1="0.52359878"
       sodipodi:arg2="1.1519173"
       inkscape:flatsided="false"
       inkscape:rounded="0"
       inkscape:randomized="0"
       d="m 132.94639,273.73244 -24.50371,-1.59846 -15.208301,19.27938 -6.05184,-23.79836 -23.035405,-8.5063 20.763468,-13.10974 0.971635,-24.53656 18.884373,15.6961 23.63591,-6.65813 -9.09229,22.81046 z"
       inkscape:transform-center-y="-10.228274"
       inkscape:transform-center-x="-8.4713859"
       transform="matrix(0.8660254,0.5,-0.5,0.8660254,279.03549,-9.89783)" />
  </g>
</svg>
