<?xml version="1.0" encoding="UTF-8" standalone="no"?>
<!-- Created with Inkscape (http://www.inkscape.org/) -->

<svg
   xmlns:dc="http://purl.org/dc/elements/1.1/"
   xmlns:cc="http://creativecommons.org/ns#"
   xmlns:rdf="http://www.w3.org/1999/02/22-rdf-syntax-ns#"
   xmlns:svg="http://www.w3.org/2000/svg"
   xmlns="http://www.w3.org/2000/svg"
   xmlns:sodipodi="http://sodipodi.sourceforge.net/DTD/sodipodi-0.dtd"
   xmlns:inkscape="http://www.inkscape.org/namespaces/inkscape"
   width="100mm"
   height="26mm"
   viewBox="0 0 354.33071 92.125979"
   id="svg4227"
   version="1.1"
   inkscape:version="0.91 r13725"
   sodipodi:docname="m_latest.svg">
  <defs
     id="defs4229" />
  <sodipodi:namedview
     id="base"
     pagecolor="#444444"
     bordercolor="#666666"
     borderopacity="1.0"
     inkscape:pageopacity="0"
     inkscape:pageshadow="2"
     inkscape:zoom="0.98994949"
     inkscape:cx="161.98406"
     inkscape:cy="-149.23398"
     inkscape:document-units="px"
     inkscape:current-layer="layer3"
     showgrid="false"
     inkscape:window-width="1918"
     inkscape:window-height="1052"
     inkscape:window-x="0"
     inkscape:window-y="26"
     inkscape:window-maximized="0"
     fit-margin-top="0"
     fit-margin-left="0"
     fit-margin-right="0"
     fit-margin-bottom="0" />
  <metadata
     id="metadata4232">
    <rdf:RDF>
      <cc:Work
         rdf:about="">
        <dc:format>image/svg+xml</dc:format>
        <dc:type
           rdf:resource="http://purl.org/dc/dcmitype/StillImage" />
        <dc:title></dc:title>
      </cc:Work>
    </rdf:RDF>
  </metadata>
  <g
     inkscape:label="レイヤー 1"
     inkscape:groupmode="layer"
     id="layer1"
     style="display:inline"
     transform="translate(-198.53488,-305.87431)">
    <text
       xml:space="preserve"
       style="font-style:normal;font-weight:normal;font-size:62.5px;line-height:125%;font-family:Sans;letter-spacing:0px;word-spacing:0px;fill:#000000;fill-opacity:1;stroke:none;stroke-width:1px;stroke-linecap:butt;stroke-linejoin:miter;stroke-opacity:1"
       x="155.71429"
       y="590.93365"
       id="text4827"
       sodipodi:linespacing="125%"><tspan
         sodipodi:role="line"
         id="tspan4829"
         x="155.71429"
         y="590.93365" /></text>
  </g>
  <g
     inkscape:groupmode="layer"
     id="layer3"
     inkscape:label="レイヤー 2"
     style="display:inline"
     transform="translate(-198.53488,-305.87431)">
    <g
       id="g4281"
       transform="translate(1.5152288,0)">
      <path
         d="m 296.86015,332.75923 -9.9375,0 0,-19 49.1875,0 0,19 -39.25,0 z m 0,-6.625 0,1.6875 29.3125,0 0,-1.6875 -29.3125,0 z m 0,-4.5625 29.3125,0 0,-1.625 -29.3125,0 0,1.625 z m -1.25,30.0625 7.3125,0 0,-2.25 -7.3125,0 0,2.25 z m 7.3125,6.6875 0,-1.6875 -7.3125,0 0,2.75 q 2.4375,-0.3125 7.3125,-1.0625 z m 22.25,-2.875 q 2.125,-1.9375 3.8125,-4.4375 l -8.4375,0 q 2.125,2.5625 4.625,4.4375 z m -22.25,-13.3125 -7.3125,0 0,2.25 7.3125,0 0,-2.25 z m 10.6875,8.875 0,-7.4375 23.9375,0 0,7.4375 q -2.1875,5.0625 -5.3125,8.625 4.0625,1.8125 8.875,3 l -2.5625,7.375 q -7.3125,-1.6875 -12.9375,-4.8125 -3.9375,2.5 -10.875,4.8125 l -2.875,-5.5625 0,6.125 -8.9375,0 0,-4.6875 q -9.1875,1.375 -20.125,2.5625 l -0.8125,-7.4375 q 1.6875,-0.1875 5.1875,-0.5625 l 0,-18.3125 -4.5625,0 0,-7.4375 57.8125,0 0,7.4375 -28.5625,0 0,20.5 q 3.75,-1.125 6.4375,-2.5 -2.875,-2.4375 -5.0625,-5.125 l 4.875,-4 -4.5,0 z"
         style="font-style:normal;font-variant:normal;font-weight:800;font-stretch:normal;font-size:medium;line-height:125%;font-family:'M+ 1c';-inkscape-font-specification:'M+ 1c Ultra-Bold';letter-spacing:0px;word-spacing:0px;display:inline;fill:#ffffff;fill-opacity:1;stroke:#ffffff;stroke-width:13;stroke-linecap:round;stroke-linejoin:round;stroke-miterlimit:4;stroke-dasharray:none;stroke-opacity:1"
         id="path4880"
         inkscape:connector-curvature="0" />
      <path
         d="m 296.86015,332.75923 -9.9375,0 0,-19 49.1875,0 0,19 -39.25,0 z m 0,-6.625 0,1.6875 29.3125,0 0,-1.6875 -29.3125,0 z m 0,-4.5625 29.3125,0 0,-1.625 -29.3125,0 0,1.625 z m -1.25,30.0625 7.3125,0 0,-2.25 -7.3125,0 0,2.25 z m 7.3125,6.6875 0,-1.6875 -7.3125,0 0,2.75 q 2.4375,-0.3125 7.3125,-1.0625 z m 22.25,-2.875 q 2.125,-1.9375 3.8125,-4.4375 l -8.4375,0 q 2.125,2.5625 4.625,4.4375 z m -22.25,-13.3125 -7.3125,0 0,2.25 7.3125,0 0,-2.25 z m 10.6875,8.875 0,-7.4375 23.9375,0 0,7.4375 q -2.1875,5.0625 -5.3125,8.625 4.0625,1.8125 8.875,3 l -2.5625,7.375 q -7.3125,-1.6875 -12.9375,-4.8125 -3.9375,2.5 -10.875,4.8125 l -2.875,-5.5625 0,6.125 -8.9375,0 0,-4.6875 q -9.1875,1.375 -20.125,2.5625 l -0.8125,-7.4375 q 1.6875,-0.1875 5.1875,-0.5625 l 0,-18.3125 -4.5625,0 0,-7.4375 57.8125,0 0,7.4375 -28.5625,0 0,20.5 q 3.75,-1.125 6.4375,-2.5 -2.875,-2.4375 -5.0625,-5.125 l 4.875,-4 -4.5,0 z"
         style="font-style:normal;font-variant:normal;font-weight:800;font-stretch:normal;font-size:medium;line-height:125%;font-family:'M+ 1c';-inkscape-font-specification:'M+ 1c Ultra-Bold';letter-spacing:0px;word-spacing:0px;fill:#e0d3a0;fill-opacity:1;stroke:none;stroke-width:1px;stroke-linecap:butt;stroke-linejoin:miter;stroke-opacity:1"
         id="path4880-0"
         inkscape:connector-curvature="0" />
    </g>
    <g
       id="g4277"
       transform="translate(4.0406103,1.1160523)">
      <path
         d="m 362.86015,352.82173 3.125,0 q 1.4375,-3.625 2.375,-7.125 l -7.25,0 q 1.25,4.75 1.75,7.125 z m 16.1875,7.625 -10.4375,0 0,2.75 9.625,0 0,7.875 -9.4375,0 q 3.625,3.0625 7.6875,6.875 3,-6.0625 4.125,-14.6875 1.125,-8.6875 1.125,-26.375 13.8125,-1.125 22.875,-4.375 l 2.4375,8.625 q -7.375,2.375 -16.4375,3.5625 -0.125,4.6875 -0.25,7 l 17,0 0,8.625 -4.375,0 0,29.5 -9.25,0 0,-29.5 -3.9375,0 q -0.9375,10.625 -3.25,17.3125 -2.25,6.6875 -6.4375,12.375 l -5.8125,-6.0625 -1.375,1.625 q -1.75,-2.125 -4.3125,-4.8125 l 0,9.625 -9.4375,0 0,-10.4375 q -2.9375,4.75 -6.3125,8.25 l -4.75,-7.4375 q 5.125,-4.3125 8.4375,-9.6875 l -6.75,0 0,-7.875 9.375,0 0,-2.75 -9.375,0 0,-7.625 4.9375,0 q -0.875,-3.5625 -1.875,-7.125 l -2.75,0 0,-7.875 9.0625,0 0,-5.875 9.4375,0 0,5.875 10.6875,0 0,7.875 -2.625,0 q -0.75,3 -2.3125,7.125 l 4.6875,0 0,7.625 z"
         style="font-style:normal;font-variant:normal;font-weight:800;font-stretch:normal;font-size:medium;line-height:125%;font-family:'M+ 1c';-inkscape-font-specification:'M+ 1c Ultra-Bold';letter-spacing:0px;word-spacing:0px;display:inline;fill:#ffffff;fill-opacity:1;stroke:#ffffff;stroke-width:13;stroke-linecap:round;stroke-linejoin:round;stroke-miterlimit:4;stroke-dasharray:none;stroke-opacity:1"
         id="path4882"
         inkscape:connector-curvature="0" />
      <path
         d="m 362.86015,352.82173 3.125,0 q 1.4375,-3.625 2.375,-7.125 l -7.25,0 q 1.25,4.75 1.75,7.125 z m 16.1875,7.625 -10.4375,0 0,2.75 9.625,0 0,7.875 -9.4375,0 q 3.625,3.0625 7.6875,6.875 3,-6.0625 4.125,-14.6875 1.125,-8.6875 1.125,-26.375 13.8125,-1.125 22.875,-4.375 l 2.4375,8.625 q -7.375,2.375 -16.4375,3.5625 -0.125,4.6875 -0.25,7 l 17,0 0,8.625 -4.375,0 0,29.5 -9.25,0 0,-29.5 -3.9375,0 q -0.9375,10.625 -3.25,17.3125 -2.25,6.6875 -6.4375,12.375 l -5.8125,-6.0625 -1.375,1.625 q -1.75,-2.125 -4.3125,-4.8125 l 0,9.625 -9.4375,0 0,-10.4375 q -2.9375,4.75 -6.3125,8.25 l -4.75,-7.4375 q 5.125,-4.3125 8.4375,-9.6875 l -6.75,0 0,-7.875 9.375,0 0,-2.75 -9.375,0 0,-7.625 4.9375,0 q -0.875,-3.5625 -1.875,-7.125 l -2.75,0 0,-7.875 9.0625,0 0,-5.875 9.4375,0 0,5.875 10.6875,0 0,7.875 -2.625,0 q -0.75,3 -2.3125,7.125 l 4.6875,0 0,7.625 z"
         style="font-style:normal;font-variant:normal;font-weight:800;font-stretch:normal;font-size:medium;line-height:125%;font-family:'M+ 1c';-inkscape-font-specification:'M+ 1c Ultra-Bold';letter-spacing:0px;word-spacing:0px;fill:#dee0a0;fill-opacity:1;stroke:none;stroke-width:1px;stroke-linecap:butt;stroke-linejoin:miter;stroke-opacity:1"
         id="path4882-7"
         inkscape:connector-curvature="0" />
    </g>
    <g
       id="g4273"
       transform="translate(6.5659918,0)">
      <path
         d="m 424.29765,373.91102 0,2.125 -8.375,0 0,-19.375 22.1875,0 0,17.25 -13.8125,0 z m 0,-6.625 6.375,0 0,-4 -6.375,0 0,4 z m 38.375,-12 9.9375,1.0625 q -0.1875,4.4375 -0.4375,7.125 -0.1875,2.6875 -0.6875,4.875 -0.5,2.1875 -1.0625,3.25 -0.5625,1.0625 -1.8125,1.8125 -1.1875,0.8125 -2.4375,1 -1.25,0.25 -3.5,0.4375 -4.1875,0.3125 -7.875,0.3125 -3.0625,0 -6.6875,-0.3125 -1.9375,-0.1875 -2.9375,-0.375 -0.9375,-0.125 -1.9375,-0.6875 -0.9375,-0.5 -1.3125,-1.125 -0.375,-0.625 -0.6875,-2.125 -0.3125,-1.4375 -0.375,-3.0625 -0.0625,-1.625 -0.0625,-4.5625 l 0,-23.0625 20.125,0 0,-10.75 -21,0 0,-8.375 30.6875,0 0,31.0625 -9.6875,0 0,-3.5 -10.1875,0 0,14.25 q 0,2.625 0.3125,3.1875 0.3125,0.5625 1.8125,0.6875 1.125,0.125 3.0625,0.125 2.3125,0 3.75,-0.125 1.875,-0.125 2.25,-1.5625 0.4375,-1.5 0.75,-9.5625 z m -46.75,-27.875 0,-7.125 21.6875,0 0,7.125 -21.6875,0 z m -1.5625,9.6875 0,-7.8125 25,0 0,7.8125 -25,0 z m 2.1875,8.8125 0,-6.875 21.25,0 0,6.875 -21.25,0 z m 0,8.8125 0,-6.875 21.25,0 0,6.875 -21.25,0 z"
         style="font-style:normal;font-variant:normal;font-weight:800;font-stretch:normal;font-size:medium;line-height:125%;font-family:'M+ 1c';-inkscape-font-specification:'M+ 1c Ultra-Bold';letter-spacing:0px;word-spacing:0px;display:inline;fill:#ffffff;fill-opacity:1;stroke:#ffffff;stroke-width:13;stroke-linecap:round;stroke-linejoin:round;stroke-miterlimit:4;stroke-dasharray:none;stroke-opacity:1"
         id="path4884"
         inkscape:connector-curvature="0" />
      <path
         d="m 424.29765,373.91102 0,2.125 -8.375,0 0,-19.375 22.1875,0 0,17.25 -13.8125,0 z m 0,-6.625 6.375,0 0,-4 -6.375,0 0,4 z m 38.375,-12 9.9375,1.0625 q -0.1875,4.4375 -0.4375,7.125 -0.1875,2.6875 -0.6875,4.875 -0.5,2.1875 -1.0625,3.25 -0.5625,1.0625 -1.8125,1.8125 -1.1875,0.8125 -2.4375,1 -1.25,0.25 -3.5,0.4375 -4.1875,0.3125 -7.875,0.3125 -3.0625,0 -6.6875,-0.3125 -1.9375,-0.1875 -2.9375,-0.375 -0.9375,-0.125 -1.9375,-0.6875 -0.9375,-0.5 -1.3125,-1.125 -0.375,-0.625 -0.6875,-2.125 -0.3125,-1.4375 -0.375,-3.0625 -0.0625,-1.625 -0.0625,-4.5625 l 0,-23.0625 20.125,0 0,-10.75 -21,0 0,-8.375 30.6875,0 0,31.0625 -9.6875,0 0,-3.5 -10.1875,0 0,14.25 q 0,2.625 0.3125,3.1875 0.3125,0.5625 1.8125,0.6875 1.125,0.125 3.0625,0.125 2.3125,0 3.75,-0.125 1.875,-0.125 2.25,-1.5625 0.4375,-1.5 0.75,-9.5625 z m -46.75,-27.875 0,-7.125 21.6875,0 0,7.125 -21.6875,0 z m -1.5625,9.6875 0,-7.8125 25,0 0,7.8125 -25,0 z m 2.1875,8.8125 0,-6.875 21.25,0 0,6.875 -21.25,0 z m 0,8.8125 0,-6.875 21.25,0 0,6.875 -21.25,0 z"
         style="font-style:normal;font-variant:normal;font-weight:800;font-stretch:normal;font-size:medium;line-height:125%;font-family:'M+ 1c';-inkscape-font-specification:'M+ 1c Ultra-Bold';letter-spacing:0px;word-spacing:0px;fill:#cfe0a0;fill-opacity:1;stroke:none;stroke-width:1px;stroke-linecap:butt;stroke-linejoin:miter;stroke-opacity:1"
         id="path4884-8"
         inkscape:connector-curvature="0" />
    </g>
    <g
       id="g4269"
       transform="translate(1.1304506,0)">
      <path
         d="m 521.54765,363.29494 10.5625,0 0,-1.9375 -10.5625,0 0,1.9375 z m 0,8.5625 10.5625,0 0,-1.9375 -10.5625,0 0,1.9375 z m 0,-22.9375 9.875,0 0,-2.3125 -9.875,0 0,2.3125 z m -20.625,0 9.875,0 0,-2.3125 -9.875,0 0,2.3125 z m 44.3125,14.375 0,6.625 -3.4375,0 0,10.1875 -9.6875,0 0,-2.5 -10.5625,0 q 0,2.25 -0.125,3.5625 -0.125,1.375 -0.625,2.5 -0.4375,1.1875 -1.125,1.6875 -0.625,0.5625 -2,0.9375 -1.375,0.375 -3,0.4375 -1.625,0.125 -4.3125,0.125 -2.6875,0 -9.5625,-0.3125 l -0.25,-7.3125 q 6.6875,0.3125 8.5,0.3125 1.3125,0 1.5,-0.1875 0.25,-0.1875 0.25,-1.25 l 0,-0.5 -21.625,0 0,-5.75 21.625,0 0,-1.9375 -23.6875,0 0,-6.625 23.6875,0 0,-1.9375 -21.625,0 0,-5.75 21.625,0 0,-1.75 -9.875,0 -9.6875,0 0,-12.6875 19.5625,0 0,-1.75 -23.0625,0 0,-7.0625 23.0625,0 0,-3.625 10.75,0 0,3.625 23.0625,0 0,7.0625 -23.0625,0 0,1.75 19.5625,0 0,12.6875 -19.5625,0 0,1.75 20.25,0 0,7.6875 3.4375,0 z"
         style="font-style:normal;font-variant:normal;font-weight:800;font-stretch:normal;font-size:medium;line-height:125%;font-family:'M+ 1c';-inkscape-font-specification:'M+ 1c Ultra-Bold';letter-spacing:0px;word-spacing:0px;display:inline;fill:#ffffff;fill-opacity:1;stroke:#ffffff;stroke-width:13;stroke-linecap:round;stroke-linejoin:round;stroke-miterlimit:4;stroke-dasharray:none;stroke-opacity:1"
         id="path4886"
         inkscape:connector-curvature="0" />
      <path
         d="m 521.54765,363.29494 10.5625,0 0,-1.9375 -10.5625,0 0,1.9375 z m 0,8.5625 10.5625,0 0,-1.9375 -10.5625,0 0,1.9375 z m 0,-22.9375 9.875,0 0,-2.3125 -9.875,0 0,2.3125 z m -20.625,0 9.875,0 0,-2.3125 -9.875,0 0,2.3125 z m 44.3125,14.375 0,6.625 -3.4375,0 0,10.1875 -9.6875,0 0,-2.5 -10.5625,0 q 0,2.25 -0.125,3.5625 -0.125,1.375 -0.625,2.5 -0.4375,1.1875 -1.125,1.6875 -0.625,0.5625 -2,0.9375 -1.375,0.375 -3,0.4375 -1.625,0.125 -4.3125,0.125 -2.6875,0 -9.5625,-0.3125 l -0.25,-7.3125 q 6.6875,0.3125 8.5,0.3125 1.3125,0 1.5,-0.1875 0.25,-0.1875 0.25,-1.25 l 0,-0.5 -21.625,0 0,-5.75 21.625,0 0,-1.9375 -23.6875,0 0,-6.625 23.6875,0 0,-1.9375 -21.625,0 0,-5.75 21.625,0 0,-1.75 -9.875,0 -9.6875,0 0,-12.6875 19.5625,0 0,-1.75 -23.0625,0 0,-7.0625 23.0625,0 0,-3.625 10.75,0 0,3.625 23.0625,0 0,7.0625 -23.0625,0 0,1.75 19.5625,0 0,12.6875 -19.5625,0 0,1.75 20.25,0 0,7.6875 3.4375,0 z"
         style="font-style:normal;font-variant:normal;font-weight:800;font-stretch:normal;font-size:medium;line-height:125%;font-family:'M+ 1c';-inkscape-font-specification:'M+ 1c Ultra-Bold';letter-spacing:0px;word-spacing:0px;fill:#c0e0a0;fill-opacity:1;stroke:none;stroke-width:1px;stroke-linecap:butt;stroke-linejoin:miter;stroke-opacity:1"
         id="path4886-8"
         inkscape:connector-curvature="0" />
    </g>
    <g
       id="g4285"
       transform="translate(4.6632252e-6,2.0669459)">
      <path
         transform="matrix(0.8660254,0.5,-0.5,0.8660254,279.03549,85.90152)"
         inkscape:transform-center-x="-8.4713859"
         inkscape:transform-center-y="-10.228274"
         d="m 132.94639,273.73244 -24.50371,-1.59846 -15.208301,19.27938 -6.05184,-23.79836 -23.035405,-8.5063 20.763468,-13.10974 0.971635,-24.53656 18.884373,15.6961 23.63591,-6.65813 -9.09229,22.81046 z"
         inkscape:randomized="0"
         inkscape:rounded="0"
         inkscape:flatsided="false"
         sodipodi:arg2="1.1519173"
         sodipodi:arg1="0.52359878"
         sodipodi:r2="18.488983"
         sodipodi:r1="36.977966"
         sodipodi:cy="255.24345"
         sodipodi:cx="100.92253"
         sodipodi:sides="5"
         id="path4803-6"
         style="color:#000000;clip-rule:nonzero;display:inline;overflow:visible;visibility:visible;opacity:1;isolation:auto;mix-blend-mode:normal;color-interpolation:sRGB;color-interpolation-filters:linearRGB;solid-color:#000000;solid-opacity:1;fill:#ffffff;fill-opacity:1;fill-rule:nonzero;stroke:#ffffff;stroke-width:13;stroke-linecap:round;stroke-linejoin:round;stroke-miterlimit:4;stroke-dasharray:none;stroke-dashoffset:0;stroke-opacity:1;color-rendering:auto;image-rendering:auto;shape-rendering:auto;text-rendering:auto;enable-background:accumulate"
         sodipodi:type="star" />
      <path
         transform="matrix(0.8660254,0.5,-0.5,0.8660254,279.03549,85.90152)"
         inkscape:transform-center-x="-8.4713859"
         inkscape:transform-center-y="-10.228274"
         d="m 132.94639,273.73244 -24.50371,-1.59846 -15.208301,19.27938 -6.05184,-23.79836 -23.035405,-8.5063 20.763468,-13.10974 0.971635,-24.53656 18.884373,15.6961 23.63591,-6.65813 -9.09229,22.81046 z"
         inkscape:randomized="0"
         inkscape:rounded="0"
         inkscape:flatsided="false"
         sodipodi:arg2="1.1519173"
         sodipodi:arg1="0.52359878"
         sodipodi:r2="18.488983"
         sodipodi:r1="36.977966"
         sodipodi:cy="255.24345"
         sodipodi:cx="100.92253"
         sodipodi:sides="5"
         id="path4803-6-2"
         style="color:#000000;clip-rule:nonzero;display:inline;overflow:visible;visibility:visible;opacity:1;isolation:auto;mix-blend-mode:normal;color-interpolation:sRGB;color-interpolation-filters:linearRGB;solid-color:#000000;solid-opacity:1;fill:#e0c4a0;fill-opacity:1;fill-rule:nonzero;stroke:none;stroke-width:14;stroke-linecap:round;stroke-linejoin:round;stroke-miterlimit:4;stroke-dasharray:none;stroke-dashoffset:0;stroke-opacity:1;color-rendering:auto;image-rendering:auto;shape-rendering:auto;text-rendering:auto;enable-background:accumulate"
         sodipodi:type="star" />
    </g>
  </g>
</svg>
