<?xml version="1.0" encoding="UTF-8" standalone="no"?>
<!-- Created with Inkscape (http://www.inkscape.org/) -->

<svg
   xmlns:dc="http://purl.org/dc/elements/1.1/"
   xmlns:cc="http://creativecommons.org/ns#"
   xmlns:rdf="http://www.w3.org/1999/02/22-rdf-syntax-ns#"
   xmlns:svg="http://www.w3.org/2000/svg"
   xmlns="http://www.w3.org/2000/svg"
   xmlns:sodipodi="http://sodipodi.sourceforge.net/DTD/sodipodi-0.dtd"
   xmlns:inkscape="http://www.inkscape.org/namespaces/inkscape"
   width="69.430275mm"
   height="25.136154mm"
   viewBox="0 0 246.01279 89.065108"
   id="svg4227"
   version="1.1"
   inkscape:version="0.91 r13725"
   sodipodi:docname="m_links.svg">
  <defs
     id="defs4229" />
  <sodipodi:namedview
     id="base"
     pagecolor="#444444"
     bordercolor="#666666"
     borderopacity="1.0"
     inkscape:pageopacity="0"
     inkscape:pageshadow="2"
     inkscape:zoom="1.979899"
     inkscape:cx="166.90751"
     inkscape:cy="-46.6267"
     inkscape:document-units="px"
     inkscape:current-layer="layer3"
     showgrid="false"
     inkscape:window-width="1189"
     inkscape:window-height="1052"
     inkscape:window-x="729"
     inkscape:window-y="26"
     inkscape:window-maximized="0"
     fit-margin-top="0"
     fit-margin-left="0"
     fit-margin-right="0"
     fit-margin-bottom="0" />
  <metadata
     id="metadata4232">
    <rdf:RDF>
      <cc:Work
         rdf:about="">
        <dc:format>image/svg+xml</dc:format>
        <dc:type
           rdf:resource="http://purl.org/dc/dcmitype/StillImage" />
        <dc:title></dc:title>
      </cc:Work>
    </rdf:RDF>
  </metadata>
  <g
     inkscape:label="レイヤー 1"
     inkscape:groupmode="layer"
     id="layer1"
     style="display:inline"
     transform="translate(-198.53488,-505.73423)">
    <text
       xml:space="preserve"
       style="font-style:normal;font-weight:normal;font-size:62.5px;line-height:125%;font-family:Sans;letter-spacing:0px;word-spacing:0px;fill:#000000;fill-opacity:1;stroke:none;stroke-width:1px;stroke-linecap:butt;stroke-linejoin:miter;stroke-opacity:1"
       x="155.71429"
       y="590.93365"
       id="text4827"
       sodipodi:linespacing="125%"><tspan
         sodipodi:role="line"
         id="tspan4829"
         x="155.71429"
         y="590.93365" /></text>
  </g>
  <g
     inkscape:groupmode="layer"
     id="layer3"
     inkscape:label="レイヤー 2"
     style="display:inline"
     transform="translate(-198.53488,-505.73423)">
    <path
       inkscape:connector-curvature="0"
       id="path4868"
       style="font-style:normal;font-variant:normal;font-weight:800;font-stretch:normal;font-size:medium;line-height:125%;font-family:'M+ 1c';-inkscape-font-specification:'M+ 1c Ultra-Bold';letter-spacing:0px;word-spacing:0px;display:inline;fill:#ffffff;fill-opacity:1;stroke:#ffffff;stroke-width:13;stroke-linecap:round;stroke-linejoin:round;stroke-miterlimit:4;stroke-dasharray:none;stroke-opacity:1"
       d="m 312.86015,513.33511 10.875,0 0,17.5625 q 0,16.25 -8.25,24.5625 -8.25,8.25 -25.56251,9.625 l -1.9375,-9.125 q 14.25001,-1.5625 19.56251,-6.9375 5.3125,-5.375 5.3125,-17.875 l 0,-17.8125 z m -30.87501,28.4375 0,-28.4375 10.625,0 0,28.4375 -10.625,0 z" />
    <path
       inkscape:connector-curvature="0"
       id="path4870"
       style="font-style:normal;font-variant:normal;font-weight:800;font-stretch:normal;font-size:medium;line-height:125%;font-family:'M+ 1c';-inkscape-font-specification:'M+ 1c Ultra-Bold';letter-spacing:0px;word-spacing:0px;display:inline;fill:#ffffff;fill-opacity:1;stroke:#ffffff;stroke-width:13;stroke-linecap:round;stroke-linejoin:round;stroke-miterlimit:4;stroke-dasharray:none;stroke-opacity:1"
       d="m 330.73515,548.29939 4.8125,-9.0625 q 9.125,4.125 19.5,9.6875 l -5.0625,9.0625 q -10.4375,-5.5625 -19.25,-9.6875 z m 41.4375,-2.9375 9.5625,2.125 q -3.3125,18.875 -15.125,28.9375 -11.75,10 -33,11.875 l -1.5625,-9.8125 q 18,-1.8125 27.375,-9.5625 9.4375,-7.8125 12.75,-23.5625 z" />
    <path
       sodipodi:type="star"
       style="color:#000000;clip-rule:nonzero;display:inline;overflow:visible;visibility:visible;opacity:1;isolation:auto;mix-blend-mode:normal;color-interpolation:sRGB;color-interpolation-filters:linearRGB;solid-color:#000000;solid-opacity:1;fill:#ffffff;fill-opacity:1;fill-rule:nonzero;stroke:#ffffff;stroke-width:13;stroke-linecap:round;stroke-linejoin:round;stroke-miterlimit:4;stroke-dasharray:none;stroke-dashoffset:0;stroke-opacity:1;color-rendering:auto;image-rendering:auto;shape-rendering:auto;text-rendering:auto;enable-background:accumulate"
       id="path4803-4"
       sodipodi:sides="5"
       sodipodi:cx="100.92253"
       sodipodi:cy="255.24345"
       sodipodi:r1="36.977966"
       sodipodi:r2="18.488983"
       sodipodi:arg1="0.52359878"
       sodipodi:arg2="1.1519173"
       inkscape:flatsided="false"
       inkscape:rounded="0"
       inkscape:randomized="0"
       d="m 132.94639,273.73244 -24.50371,-1.59846 -15.208301,19.27938 -6.05184,-23.79836 -23.035405,-8.5063 20.763468,-13.10974 0.971635,-24.53656 18.884373,15.6961 23.63591,-6.65813 -9.09229,22.81046 z"
       inkscape:transform-center-y="-10.228274"
       inkscape:transform-center-x="-8.4713859"
       transform="matrix(0.8660254,0.5,-0.5,0.8660254,279.03549,277.50023)" />
    <path
       inkscape:connector-curvature="0"
       id="path4966"
       style="font-style:normal;font-variant:normal;font-weight:800;font-stretch:normal;font-size:medium;line-height:125%;font-family:'M+ 1c';-inkscape-font-specification:'M+ 1c Ultra-Bold';letter-spacing:0px;word-spacing:0px;display:inline;fill:#ffffff;fill-opacity:1;stroke:#ffffff;stroke-width:13;stroke-linecap:round;stroke-linejoin:round;stroke-miterlimit:4;stroke-dasharray:none;stroke-opacity:1"
       d="m 427.11015,535.0539 -18.9375,0 q -3.9375,9.4375 -12.3125,17.625 l -7.125,-6.125 q 5.3125,-5.3125 8.8125,-12.3125 3.5,-7.0625 4.375,-14.125 l 9.8125,0.5625 q -0.3125,2.9375 -0.8125,5.3125 l 27.125,0 0,1.6875 q 0,22.3125 -10,32.75 -9.9375,10.4375 -32.1875,12.25 l -1.5625,-9.0625 q 16.75,-1.6875 24.125,-7.9375 7.4375,-6.3125 8.6875,-20.625 z" />
    <path
       inkscape:connector-curvature="0"
       id="path4868-6"
       style="font-style:normal;font-variant:normal;font-weight:800;font-stretch:normal;font-size:medium;line-height:125%;font-family:'M+ 1c';-inkscape-font-specification:'M+ 1c Ultra-Bold';letter-spacing:0px;word-spacing:0px;fill:#e0d3a0;fill-opacity:1;stroke:none;stroke-width:1px;stroke-linecap:butt;stroke-linejoin:miter;stroke-opacity:1"
       d="m 312.86015,513.33511 10.875,0 0,17.5625 q 0,16.25 -8.25,24.5625 -8.25,8.25 -25.56251,9.625 l -1.9375,-9.125 q 14.25001,-1.5625 19.56251,-6.9375 5.3125,-5.375 5.3125,-17.875 l 0,-17.8125 z m -30.87501,28.4375 0,-28.4375 10.625,0 0,28.4375 -10.625,0 z" />
    <path
       inkscape:connector-curvature="0"
       id="path4870-6"
       style="font-style:normal;font-variant:normal;font-weight:800;font-stretch:normal;font-size:medium;line-height:125%;font-family:'M+ 1c';-inkscape-font-specification:'M+ 1c Ultra-Bold';letter-spacing:0px;word-spacing:0px;fill:#dee0a0;fill-opacity:1;stroke:none;stroke-width:1px;stroke-linecap:butt;stroke-linejoin:miter;stroke-opacity:1"
       d="m 330.73515,548.29939 4.8125,-9.0625 q 9.125,4.125 19.5,9.6875 l -5.0625,9.0625 q -10.4375,-5.5625 -19.25,-9.6875 z m 41.4375,-2.9375 9.5625,2.125 q -3.3125,18.875 -15.125,28.9375 -11.75,10 -33,11.875 l -1.5625,-9.8125 q 18,-1.8125 27.375,-9.5625 9.4375,-7.8125 12.75,-23.5625 z" />
    <path
       sodipodi:type="star"
       style="color:#000000;clip-rule:nonzero;display:inline;overflow:visible;visibility:visible;opacity:1;isolation:auto;mix-blend-mode:normal;color-interpolation:sRGB;color-interpolation-filters:linearRGB;solid-color:#000000;solid-opacity:1;fill:#e0c4a0;fill-opacity:1;fill-rule:nonzero;stroke:none;stroke-width:14;stroke-linecap:round;stroke-linejoin:round;stroke-miterlimit:4;stroke-dasharray:none;stroke-dashoffset:0;stroke-opacity:1;color-rendering:auto;image-rendering:auto;shape-rendering:auto;text-rendering:auto;enable-background:accumulate"
       id="path4803-4-5"
       sodipodi:sides="5"
       sodipodi:cx="100.92253"
       sodipodi:cy="255.24345"
       sodipodi:r1="36.977966"
       sodipodi:r2="18.488983"
       sodipodi:arg1="0.52359878"
       sodipodi:arg2="1.1519173"
       inkscape:flatsided="false"
       inkscape:rounded="0"
       inkscape:randomized="0"
       d="m 132.94639,273.73244 -24.50371,-1.59846 -15.208301,19.27938 -6.05184,-23.79836 -23.035405,-8.5063 20.763468,-13.10974 0.971635,-24.53656 18.884373,15.6961 23.63591,-6.65813 -9.09229,22.81046 z"
       inkscape:transform-center-y="-10.228274"
       inkscape:transform-center-x="-8.4713859"
       transform="matrix(0.8660254,0.5,-0.5,0.8660254,279.03549,277.50023)" />
    <path
       inkscape:connector-curvature="0"
       id="path4966-1"
       style="font-style:normal;font-variant:normal;font-weight:800;font-stretch:normal;font-size:medium;line-height:125%;font-family:'M+ 1c';-inkscape-font-specification:'M+ 1c Ultra-Bold';letter-spacing:0px;word-spacing:0px;fill:#cfe0a0;fill-opacity:1;stroke:none;stroke-width:1px;stroke-linecap:butt;stroke-linejoin:miter;stroke-opacity:1"
       d="m 427.11015,535.0539 -18.9375,0 q -3.9375,9.4375 -12.3125,17.625 l -7.125,-6.125 q 5.3125,-5.3125 8.8125,-12.3125 3.5,-7.0625 4.375,-14.125 l 9.8125,0.5625 q -0.3125,2.9375 -0.8125,5.3125 l 27.125,0 0,1.6875 q 0,22.3125 -10,32.75 -9.9375,10.4375 -32.1875,12.25 l -1.5625,-9.0625 q 16.75,-1.6875 24.125,-7.9375 7.4375,-6.3125 8.6875,-20.625 z" />
  </g>
</svg>
