<?xml version="1.0" encoding="UTF-8" standalone="no"?>
<!-- Created with Inkscape (http://www.inkscape.org/) -->

<svg
   xmlns:dc="http://purl.org/dc/elements/1.1/"
   xmlns:cc="http://creativecommons.org/ns#"
   xmlns:rdf="http://www.w3.org/1999/02/22-rdf-syntax-ns#"
   xmlns:svg="http://www.w3.org/2000/svg"
   xmlns="http://www.w3.org/2000/svg"
   xmlns:sodipodi="http://sodipodi.sourceforge.net/DTD/sodipodi-0.dtd"
   xmlns:inkscape="http://www.inkscape.org/namespaces/inkscape"
   width="57.647453mm"
   height="23.888933mm"
   viewBox="0 0 204.26263 84.645821"
   id="svg4227"
   version="1.1"
   inkscape:version="0.91 r13725"
   sodipodi:docname="m_tags.svg">
  <defs
     id="defs4229" />
  <sodipodi:namedview
     id="base"
     pagecolor="#444444"
     bordercolor="#666666"
     borderopacity="1.0"
     inkscape:pageopacity="0"
     inkscape:pageshadow="2"
     inkscape:zoom="1.4"
     inkscape:cx="131.32169"
     inkscape:cy="48.695941"
     inkscape:document-units="px"
     inkscape:current-layer="layer3"
     showgrid="false"
     inkscape:window-width="1189"
     inkscape:window-height="1052"
     inkscape:window-x="729"
     inkscape:window-y="26"
     inkscape:window-maximized="0"
     fit-margin-top="0"
     fit-margin-left="0"
     fit-margin-right="0"
     fit-margin-bottom="0" />
  <metadata
     id="metadata4232">
    <rdf:RDF>
      <cc:Work
         rdf:about="">
        <dc:format>image/svg+xml</dc:format>
        <dc:type
           rdf:resource="http://purl.org/dc/dcmitype/StillImage" />
        <dc:title></dc:title>
      </cc:Work>
    </rdf:RDF>
  </metadata>
  <g
     inkscape:label="レイヤー 1"
     inkscape:groupmode="layer"
     id="layer1"
     style="display:inline"
     transform="translate(-199.03482,-410.43481)">
    <text
       xml:space="preserve"
       style="font-style:normal;font-weight:normal;font-size:62.5px;line-height:125%;font-family:Sans;letter-spacing:0px;word-spacing:0px;fill:#000000;fill-opacity:1;stroke:none;stroke-width:1px;stroke-linecap:butt;stroke-linejoin:miter;stroke-opacity:1"
       x="155.71429"
       y="590.93365"
       id="text4827"
       sodipodi:linespacing="125%"><tspan
         sodipodi:role="line"
         id="tspan4829"
         x="155.71429"
         y="590.93365" /></text>
  </g>
  <g
     inkscape:groupmode="layer"
     id="layer3"
     inkscape:label="レイヤー 2"
     style="display:inline"
     transform="translate(-199.03482,-410.43481)">
    <path
       inkscape:connector-curvature="0"
       id="path4875"
       style="font-style:normal;font-variant:normal;font-weight:800;font-stretch:normal;font-size:medium;line-height:125%;font-family:'M+ 1c';-inkscape-font-specification:'M+ 1c Ultra-Bold';letter-spacing:0px;word-spacing:0px;display:inline;fill:#ffffff;fill-opacity:1;stroke:#ffffff;stroke-width:12;stroke-linecap:round;stroke-linejoin:round;stroke-miterlimit:4;stroke-dasharray:none;stroke-opacity:1"
       d="m 289.79765,476.22353 -1.5625,-9.0625 q 17.8125,-1.8125 25.0625,-8.8125 -8,-4.0625 -15.25,-7.3125 l 4.75,-8.8125 q 6.625,3 15.9375,7.625 2,-5.25 2.4375,-12.5 l -20,0 q -4.0625,9.875 -12.25,17.75 l -6.9375,-6.1875 q 5.3125,-5.3125 8.75,-12.3125 3.5,-7 4.375,-14.0625 l 9.5625,0.5625 q -0.3125,2.6875 -0.75,5.1875 l 28.0625,0 0,2.9375 q 0,22.3125 -10,32.75 -9.9375,10.4375 -32.1875,12.25 z" />
    <path
       inkscape:connector-curvature="0"
       id="path4877"
       style="font-style:normal;font-variant:normal;font-weight:800;font-stretch:normal;font-size:medium;line-height:125%;font-family:'M+ 1c';-inkscape-font-specification:'M+ 1c Ultra-Bold';letter-spacing:0px;word-spacing:0px;display:inline;fill:#ffffff;fill-opacity:1;stroke:#ffffff;stroke-width:12;stroke-linecap:round;stroke-linejoin:round;stroke-miterlimit:4;stroke-dasharray:none;stroke-opacity:1"
       d="m 397.29765,442.26818 -6,2.875 q -3.375,-6.5 -4.875,-9.25 l 6,-3 q 2.875,5.25 4.875,9.375 z m -20.625,9.8125 -18.5,0 q -4,9.25 -12.0625,17 l -7.125,-6.125 q 5.3125,-5.3125 8.8125,-12.3125 3.5,-7.0625 4.375,-14.125 l 9.8125,0.5625 q -0.3125,3.0625 -0.9375,5.9375 l 19.3125,0 q -1.625,-3.25 -3.3125,-6.25 l 5.875,-2.9375 q 2.5625,4.8125 4.75,9.1875 l 0,1.0625 q 0,22.3125 -10,32.75 -9.9375,10.4375 -32.1875,12.25 l -1.5625,-9.0625 q 16.625,-1.6875 24,-7.8125 7.4375,-6.1875 8.75,-20.125 z" />
    <path
       sodipodi:type="star"
       style="color:#000000;clip-rule:nonzero;display:inline;overflow:visible;visibility:visible;opacity:1;isolation:auto;mix-blend-mode:normal;color-interpolation:sRGB;color-interpolation-filters:linearRGB;solid-color:#000000;solid-opacity:1;fill:#ffffff;fill-opacity:1;fill-rule:nonzero;stroke:#ffffff;stroke-width:12;stroke-linecap:round;stroke-linejoin:round;stroke-miterlimit:4;stroke-dasharray:none;stroke-dashoffset:0;stroke-opacity:1;color-rendering:auto;image-rendering:auto;shape-rendering:auto;text-rendering:auto;enable-background:accumulate"
       id="path4803-69"
       sodipodi:sides="5"
       sodipodi:cx="100.92253"
       sodipodi:cy="255.24345"
       sodipodi:r1="36.977966"
       sodipodi:r2="18.488983"
       sodipodi:arg1="0.52359878"
       sodipodi:arg2="1.1519173"
       inkscape:flatsided="false"
       inkscape:rounded="0"
       inkscape:randomized="0"
       d="m 132.94639,273.73244 -24.50371,-1.59846 -15.208301,19.27938 -6.05184,-23.79836 -23.035405,-8.5063 20.763468,-13.10974 0.971635,-24.53656 18.884373,15.6961 23.63591,-6.65813 -9.09229,22.81046 z"
       inkscape:transform-center-y="-10.228274"
       inkscape:transform-center-x="-8.4713859"
       transform="matrix(0.8660254,0.5,-0.5,0.8660254,279.03549,181.70088)" />
    <path
       inkscape:connector-curvature="0"
       id="path4875-4"
       style="font-style:normal;font-variant:normal;font-weight:800;font-stretch:normal;font-size:medium;line-height:125%;font-family:'M+ 1c';-inkscape-font-specification:'M+ 1c Ultra-Bold';letter-spacing:0px;word-spacing:0px;fill:#e0d3a0;fill-opacity:1;stroke:none;stroke-width:1px;stroke-linecap:butt;stroke-linejoin:miter;stroke-opacity:1"
       d="m 289.79765,476.22353 -1.5625,-9.0625 q 17.8125,-1.8125 25.0625,-8.8125 -8,-4.0625 -15.25,-7.3125 l 4.75,-8.8125 q 6.625,3 15.9375,7.625 2,-5.25 2.4375,-12.5 l -20,0 q -4.0625,9.875 -12.25,17.75 l -6.9375,-6.1875 q 5.3125,-5.3125 8.75,-12.3125 3.5,-7 4.375,-14.0625 l 9.5625,0.5625 q -0.3125,2.6875 -0.75,5.1875 l 28.0625,0 0,2.9375 q 0,22.3125 -10,32.75 -9.9375,10.4375 -32.1875,12.25 z" />
    <path
       inkscape:connector-curvature="0"
       id="path4877-7"
       style="font-style:normal;font-variant:normal;font-weight:800;font-stretch:normal;font-size:medium;line-height:125%;font-family:'M+ 1c';-inkscape-font-specification:'M+ 1c Ultra-Bold';letter-spacing:0px;word-spacing:0px;fill:#dee0a0;fill-opacity:1;stroke:none;stroke-width:1px;stroke-linecap:butt;stroke-linejoin:miter;stroke-opacity:1"
       d="m 397.29765,442.26818 -6,2.875 q -3.375,-6.5 -4.875,-9.25 l 6,-3 q 2.875,5.25 4.875,9.375 z m -20.625,9.8125 -18.5,0 q -4,9.25 -12.0625,17 l -7.125,-6.125 q 5.3125,-5.3125 8.8125,-12.3125 3.5,-7.0625 4.375,-14.125 l 9.8125,0.5625 q -0.3125,3.0625 -0.9375,5.9375 l 19.3125,0 q -1.625,-3.25 -3.3125,-6.25 l 5.875,-2.9375 q 2.5625,4.8125 4.75,9.1875 l 0,1.0625 q 0,22.3125 -10,32.75 -9.9375,10.4375 -32.1875,12.25 l -1.5625,-9.0625 q 16.625,-1.6875 24,-7.8125 7.4375,-6.1875 8.75,-20.125 z" />
    <path
       sodipodi:type="star"
       style="color:#000000;clip-rule:nonzero;display:inline;overflow:visible;visibility:visible;opacity:1;isolation:auto;mix-blend-mode:normal;color-interpolation:sRGB;color-interpolation-filters:linearRGB;solid-color:#000000;solid-opacity:1;fill:#e0c4a0;fill-opacity:1;fill-rule:nonzero;stroke:none;stroke-width:14;stroke-linecap:round;stroke-linejoin:round;stroke-miterlimit:4;stroke-dasharray:none;stroke-dashoffset:0;stroke-opacity:1;color-rendering:auto;image-rendering:auto;shape-rendering:auto;text-rendering:auto;enable-background:accumulate"
       id="path4803-69-8"
       sodipodi:sides="5"
       sodipodi:cx="100.92253"
       sodipodi:cy="255.24345"
       sodipodi:r1="36.977966"
       sodipodi:r2="18.488983"
       sodipodi:arg1="0.52359878"
       sodipodi:arg2="1.1519173"
       inkscape:flatsided="false"
       inkscape:rounded="0"
       inkscape:randomized="0"
       d="m 132.94639,273.73244 -24.50371,-1.59846 -15.208301,19.27938 -6.05184,-23.79836 -23.035405,-8.5063 20.763468,-13.10974 0.971635,-24.53656 18.884373,15.6961 23.63591,-6.65813 -9.09229,22.81046 z"
       inkscape:transform-center-y="-10.228274"
       inkscape:transform-center-x="-8.4713859"
       transform="matrix(0.8660254,0.5,-0.5,0.8660254,279.03549,181.70088)" />
  </g>
</svg>
