<?xml version="1.0" encoding="UTF-8" standalone="no"?>
<!-- Created with Inkscape (http://www.inkscape.org/) -->

<svg
   xmlns:dc="http://purl.org/dc/elements/1.1/"
   xmlns:cc="http://creativecommons.org/ns#"
   xmlns:rdf="http://www.w3.org/1999/02/22-rdf-syntax-ns#"
   xmlns:svg="http://www.w3.org/2000/svg"
   xmlns="http://www.w3.org/2000/svg"
   xmlns:sodipodi="http://sodipodi.sourceforge.net/DTD/sodipodi-0.dtd"
   xmlns:inkscape="http://www.inkscape.org/namespaces/inkscape"
   width="70"
   height="70"
   viewBox="0 0 69.999997 70.000004"
   id="svg2"
   version="1.1"
   inkscape:version="0.92.1 r"
   sodipodi:docname="mastodon.svg">
  <defs
     id="defs4">
    <linearGradient
       x1="0"
       y1="0"
       x2="1"
       y2="0"
       gradientUnits="userSpaceOnUse"
       gradientTransform="matrix(-8.09e-5,-1850,-1850,8.09e-5,-3358.053,647.65151)"
       spreadMethod="pad"
       id="linearGradient14">
      <stop
         style="stop-opacity:1;stop-color:#214263"
         offset="0"
         id="stop16" />
      <stop
         style="stop-opacity:1;stop-color:#19314a"
         offset="0.939394"
         id="stop18" />
      <stop
         style="stop-opacity:1;stop-color:#19314a"
         offset="1"
         id="stop20" />
    </linearGradient>
  </defs>
  <sodipodi:namedview
     id="base"
     pagecolor="#ffffff"
     bordercolor="#666666"
     borderopacity="1.0"
     inkscape:pageopacity="0.0"
     inkscape:pageshadow="2"
     inkscape:zoom="2.89818"
     inkscape:cx="-5.6624993"
     inkscape:cy="-28.152506"
     inkscape:document-units="px"
     inkscape:current-layer="layer1"
     showgrid="false"
     units="px"
     fit-margin-top="0"
     fit-margin-left="0"
     fit-margin-bottom="0"
     fit-margin-right="0"
     inkscape:window-width="1918"
     inkscape:window-height="1049"
     inkscape:window-x="0"
     inkscape:window-y="29"
     inkscape:window-maximized="0" />
  <metadata
     id="metadata7">
    <rdf:RDF>
      <cc:Work
         rdf:about="">
        <dc:format>image/svg+xml</dc:format>
        <dc:type
           rdf:resource="http://purl.org/dc/dcmitype/StillImage" />
        <dc:title />
      </cc:Work>
    </rdf:RDF>
  </metadata>
  <g
     inkscape:groupmode="layer"
     id="layer2"
     inkscape:label="背景"
     transform="translate(92.006985,-331.51197)" />
  <g
     inkscape:label="レイヤー 1"
     inkscape:groupmode="layer"
     id="layer1"
     transform="translate(92.006985,-1323.8741)">
    <rect
       style="color:#000000;clip-rule:nonzero;display:inline;overflow:visible;visibility:visible;opacity:1;isolation:auto;mix-blend-mode:normal;color-interpolation:sRGB;color-interpolation-filters:linearRGB;solid-color:#000000;solid-opacity:1;fill:#c7c7c7;fill-opacity:1;fill-rule:nonzero;stroke:none;stroke-width:13;stroke-linecap:round;stroke-linejoin:round;stroke-miterlimit:4;stroke-dasharray:none;stroke-dashoffset:0;stroke-opacity:1;color-rendering:auto;image-rendering:auto;shape-rendering:auto;text-rendering:auto;enable-background:accumulate"
       id="rect4955"
       width="70.000008"
       height="70.000008"
       x="-92.006989"
       y="1323.8741" />
    <g
       id="g4862"
       transform="translate(-61.072818,-45.545831)" />
    <g
       id="g4659"
       transform="matrix(0.040724,0,0,0.040724,-77.368985,1338.5121)"
       style="fill:#030303;fill-opacity:1">
      <path
         id="path4633"
         d="M 500,0 A 500,500 0 0 0 0,500 500,500 0 0 0 500,1000 500,500 0 0 0 1000,500 500,500 0 0 0 500,0 Z m -2.5,271.1 h 107.24 c -20.56,14.471 -27.24,57.064 -27.24,78.927 v 202.145 c 0,43.726 -35.202,78.928 -80,78.928 -44.798,0 -80,-35.202 -80,-78.928 V 350.027 c 0,-43.725 35.202,-78.927 80,-78.927 z m -276,48.9 c 44.798,0 80,35.202 80,78.928 v 202.144 c 0,21.863 6.68,64.456 27.24,78.928 H 221.5 c -44.798,0 -80,-35.202 -80,-78.928 V 398.928 c 0,-43.726 35.202,-78.928 80,-78.928 z m 550.24,0 c 44.799,0 80,35.202 80,78.928 v 202.144 c 0,43.726 -35.201,78.928 -80,78.928 H 664.5 c 20.56,-14.472 27.24,-57.065 27.24,-78.928 V 398.928 c 0,-43.726 35.202,-78.928 80,-78.928 z"
         inkscape:connector-curvature="0"
         style="fill:#030303;fill-opacity:1" />
      <g
         id="g4641"
         transform="translate(-2)"
         style="fill:#030303;fill-opacity:1">
        <circle
           id="circle4635"
           r="27.5"
           cy="410.5"
           cx="223.5"
           style="fill:#030303;fill-opacity:1" />
        <circle
           id="circle4637"
           r="27.5"
           cy="500.5"
           cx="223.5"
           style="fill:#030303;fill-opacity:1" />
        <circle
           id="circle4639"
           r="27.5"
           cy="590.5"
           cx="223.5"
           style="fill:#030303;fill-opacity:1" />
      </g>
      <g
         id="g4649"
         transform="matrix(1,0,0,-1,274,951)"
         style="fill:#030303;fill-opacity:1">
        <circle
           id="circle4643"
           r="27.5"
           cy="410.5"
           cx="223.5"
           style="fill:#030303;fill-opacity:1" />
        <circle
           id="circle4645"
           r="27.5"
           cy="500.5"
           cx="223.5"
           style="fill:#030303;fill-opacity:1" />
        <circle
           id="circle4647"
           r="27.5"
           cy="590.5"
           cx="223.5"
           style="fill:#030303;fill-opacity:1" />
      </g>
      <g
         id="g4657"
         transform="matrix(-1,0,0,1,995,0)"
         style="fill:#030303;fill-opacity:1">
        <circle
           id="circle4651"
           r="27.5"
           cy="410.5"
           cx="223.5"
           style="fill:#030303;fill-opacity:1" />
        <circle
           id="circle4653"
           r="27.5"
           cy="500.5"
           cx="223.5"
           style="fill:#030303;fill-opacity:1" />
        <circle
           id="circle4655"
           r="27.5"
           cy="590.5"
           cx="223.5"
           style="fill:#030303;fill-opacity:1" />
      </g>
    </g>
  </g>
</svg>
