<?xml version="1.0" encoding="UTF-8" standalone="no"?>
<!-- Created with Inkscape (http://www.inkscape.org/) -->

<svg
   xmlns:dc="http://purl.org/dc/elements/1.1/"
   xmlns:cc="http://creativecommons.org/ns#"
   xmlns:rdf="http://www.w3.org/1999/02/22-rdf-syntax-ns#"
   xmlns:svg="http://www.w3.org/2000/svg"
   xmlns="http://www.w3.org/2000/svg"
   xmlns:sodipodi="http://sodipodi.sourceforge.net/DTD/sodipodi-0.dtd"
   xmlns:inkscape="http://www.inkscape.org/namespaces/inkscape"
   width="70"
   height="70"
   viewBox="0 0 69.999997 70.000004"
   id="svg2"
   version="1.1"
   inkscape:version="0.91 r13725"
   sodipodi:docname="twitter.svg">
  <defs
     id="defs4" />
  <sodipodi:namedview
     id="base"
     pagecolor="#ffffff"
     bordercolor="#666666"
     borderopacity="1.0"
     inkscape:pageopacity="0.0"
     inkscape:pageshadow="2"
     inkscape:zoom="2.89818"
     inkscape:cx="30.95632"
     inkscape:cy="79.178413"
     inkscape:document-units="px"
     inkscape:current-layer="layer1"
     showgrid="false"
     units="px"
     fit-margin-top="0"
     fit-margin-left="0"
     fit-margin-bottom="0"
     fit-margin-right="0"
     inkscape:window-width="1035"
     inkscape:window-height="1052"
     inkscape:window-x="883"
     inkscape:window-y="26"
     inkscape:window-maximized="0" />
  <metadata
     id="metadata7">
    <rdf:RDF>
      <cc:Work
         rdf:about="">
        <dc:format>image/svg+xml</dc:format>
        <dc:type
           rdf:resource="http://purl.org/dc/dcmitype/StillImage" />
        <dc:title></dc:title>
      </cc:Work>
    </rdf:RDF>
  </metadata>
  <g
     inkscape:groupmode="layer"
     id="layer2"
     inkscape:label="背景"
     transform="translate(87.901569,-331.51192)" />
  <g
     inkscape:label="レイヤー 1"
     inkscape:groupmode="layer"
     id="layer1"
     transform="translate(87.901569,-1323.8741)">
    <g
       id="g4995"
       transform="matrix(0.4657276,0,0,0.47486363,-46.963384,731.974)">
      <rect
         y="254.10117"
         x="-87.901573"
         height="147.41075"
         width="150.30246"
         id="rect4955"
         style="color:#000000;clip-rule:nonzero;display:inline;overflow:visible;visibility:visible;opacity:1;isolation:auto;mix-blend-mode:normal;color-interpolation:sRGB;color-interpolation-filters:linearRGB;solid-color:#000000;solid-opacity:1;fill:#6cadde;fill-opacity:1;fill-rule:nonzero;stroke:none;stroke-width:13;stroke-linecap:round;stroke-linejoin:round;stroke-miterlimit:4;stroke-dasharray:none;stroke-dashoffset:0;stroke-opacity:1;color-rendering:auto;image-rendering:auto;shape-rendering:auto;text-rendering:auto;enable-background:accumulate"
         transform="translate(3.629131e-8,992.3622)" />
      <g
         style="fill:#ffffff"
         transform="matrix(0.0304006,0,0,-0.0304006,-54.306443,1353.9405)"
         id="g4393">
        <path
           inkscape:connector-curvature="0"
           id="path4395"
           style="fill:#ffffff;fill-opacity:1;fill-rule:nonzero;stroke:none"
           d="m 2733.9,1958.77 c -100.59,-44.61 -208.69,-74.76 -322.15,-88.32 115.81,69.42 204.74,179.34 246.62,310.32 -108.37,-64.28 -228.41,-110.96 -356.17,-136.12 -102.32,109.01 -248.09,177.13 -409.41,177.13 -309.77,0 -560.91,-251.13 -560.91,-560.88 0,-43.96 4.97,-86.77 14.53,-127.82 -466.156,23.39 -879.445,246.69 -1156.09,586.03 -48.281,-82.84 -75.933,-179.18 -75.933,-281.98 0,-194.59 99.019,-366.27 249.519,-466.85 -91.941,2.91 -178.426,28.14 -254.051,70.15 -0.042,-2.34 -0.05,-4.68 -0.05,-7.05 0,-271.76 193.34,-498.458 449.929,-549.982 -47.066,-12.816 -96.621,-19.668 -147.769,-19.668 -36.145,0 -71.281,3.508 -105.527,10.059 71.375,-222.84 278.511,-385 523.953,-389.527 C 638.43,333.832 396.582,244.16 133.801,244.16 88.5273,244.16 43.8789,246.809 0,251.988 248.223,92.8516 543.047,0 859.797,0 1891.48,0 2455.64,854.672 2455.64,1595.86 c 0,24.32 -0.54,48.51 -1.62,72.56 109.58,79.08 204.68,177.87 279.88,290.35" />
      </g>
    </g>
  </g>
</svg>
