<svg xmlns="http://www.w3.org/2000/svg" xmlns:xlink="http://www.w3.org/1999/xlink" width="1920" height="640" viewBox="0 0 1920 640"><path fill="#8fa4d5" d="M0 0h1920v640H0z"/><path d="M0 106.771v530.73A2855.816 279.817 0 0 0 77.17 640h1635.332A2855.816 279.817 0 0 0 1920 633.244v-522.08A2855.816 279.817 0 0 0 896.686 92.252 2855.816 279.817 0 0 0 0 106.772z" style="isolation:auto;mix-blend-mode:normal" color="#000" overflow="visible" fill="#69b1ff"/><path d="M0 228.49V640h1920V215.379a2855.816 279.817 0 0 0-774.486-10.76A2855.816 279.817 0 0 0 0 228.49z" style="isolation:auto;mix-blend-mode:normal" color="#000" overflow="visible" fill="#c1cfdf"/><circle r="95" cy="128.164" cx="753.583" style="isolation:auto;mix-blend-mode:normal" color="#000" overflow="visible" fill="#fff3b8"/><g color="#000"><path style="isolation:auto;mix-blend-mode:normal" d="M253.775-2.784A224.789 56.47 0 0 0 61.104 24.728 224.789 56.47 0 0 0-108.254 5.286a224.789 56.47 0 0 0-224.788 56.468 224.789 56.47 0 0 0 170.031 54.7 224.789 56.47 0 0 0-2.033 7.15 224.789 56.47 0 0 0 224.788 56.471 224.789 56.47 0 0 0 188.453-25.784 224.789 56.47 0 0 0 152.28 15.026 224.789 56.47 0 0 0 224.79-56.468 224.789 56.47 0 0 0-.483-3.417 224.789 56.47 0 0 0 189.78-55.744 224.789 56.47 0 0 0-224.79-56.472A224.789 56.47 0 0 0 421.731 16.26 224.789 56.47 0 0 0 253.775-2.784z" overflow="visible" fill="#d6dae6"/><path style="isolation:auto;mix-blend-mode:normal" d="M259.834 14.431a217.177 54.558 0 0 0-186.147 26.58A217.177 54.558 0 0 0-89.935 22.228a217.177 54.558 0 0 0-217.176 54.556 217.177 54.558 0 0 0 164.273 52.848 217.177 54.558 0 0 0-1.964 6.906 217.177 54.558 0 0 0 217.176 54.56 217.177 54.558 0 0 0 182.07-24.912 217.177 54.558 0 0 0 147.124 14.517 217.177 54.558 0 0 0 217.178-54.555 217.177 54.558 0 0 0-.467-3.301A217.177 54.558 0 0 0 801.63 68.99a217.177 54.558 0 0 0-217.175-54.559 217.177 54.558 0 0 0-162.354 18.4 217.177 54.558 0 0 0-162.268-18.4z" overflow="visible" fill="#aaaebc"/><path style="isolation:auto;mix-blend-mode:normal" d="M326.532 120.775a185.07 45.937 0 0 0-158.627 22.38A185.07 45.937 0 0 0 28.473 127.34a185.07 45.937 0 0 0-185.069 45.935A185.07 45.937 0 0 0-16.609 217.77a185.07 45.937 0 0 0-1.673 5.816 185.07 45.937 0 0 0 185.068 45.938A185.07 45.937 0 0 0 321.94 248.55a185.07 45.937 0 0 0 125.373 12.223 185.07 45.937 0 0 0 185.07-45.935 185.07 45.937 0 0 0-.397-2.78 185.07 45.937 0 0 0 156.245-45.345 185.07 45.937 0 0 0-185.068-45.938 185.07 45.937 0 0 0-138.351 15.492 185.07 45.937 0 0 0-138.28-15.492z" overflow="visible" fill="#d6dae6"/><path style="isolation:auto;mix-blend-mode:normal" d="M331.52 134.779A178.802 44.381 0 0 0 178.266 156.4a178.802 44.381 0 0 0-134.711-15.28 178.802 44.381 0 0 0-178.801 44.38A178.802 44.381 0 0 0 0 228.49a178.802 44.381 0 0 0-1.617 5.618 178.802 44.381 0 0 0 178.801 44.382 178.802 44.381 0 0 0 149.9-20.265 178.802 44.381 0 0 0 121.126 11.81 178.802 44.381 0 0 0 178.804-44.38 178.802 44.381 0 0 0-.385-2.685 178.802 44.381 0 0 0 150.954-43.81 178.802 44.381 0 0 0-178.8-44.382 178.802 44.381 0 0 0-133.667 14.967 178.802 44.381 0 0 0-133.596-14.967z" overflow="visible" fill="#aaaebc"/><path style="isolation:auto;mix-blend-mode:normal" d="M1774.524 110.924a194.272 60.974 0 0 0-166.514 29.706 194.272 60.974 0 0 0-146.367-20.992 194.272 60.974 0 0 0-194.271 60.972 194.272 60.974 0 0 0 146.948 59.063 194.272 60.974 0 0 0-1.756 7.719 194.272 60.974 0 0 0 194.27 60.976 194.272 60.974 0 0 0 162.87-27.842 194.272 60.974 0 0 0 131.606 16.225 194.272 60.974 0 0 0 194.275-60.972 194.272 60.974 0 0 0-.418-3.69 194.272 60.974 0 0 0 164.015-60.189 194.272 60.974 0 0 0-194.272-60.976 194.272 60.974 0 0 0-145.23 20.563 194.272 60.974 0 0 0-145.156-20.563z" overflow="visible" fill="#d6dae6"/><path style="isolation:auto;mix-blend-mode:normal" d="M1779.76 129.512a187.693 58.91 0 0 0-160.875 28.7 187.693 58.91 0 0 0-141.41-20.281 187.693 58.91 0 0 0-187.692 58.907 187.693 58.91 0 0 0 141.972 57.063 187.693 58.91 0 0 0-1.697 7.457 187.693 58.91 0 0 0 187.692 58.911 187.693 58.91 0 0 0 157.353-26.898 187.693 58.91 0 0 0 127.15 15.675 187.693 58.91 0 0 0 187.695-58.907 187.693 58.91 0 0 0-.403-3.565 187.693 58.91 0 0 0 158.46-58.151 187.693 58.91 0 0 0-187.692-58.91A187.693 58.91 0 0 0 1920 149.378a187.693 58.91 0 0 0-140.24-19.867z" overflow="visible" fill="#aaaebc"/><path style="isolation:auto;mix-blend-mode:normal" d="M1050.266 156.707a129.036 41.487 0 0 0-110.599 20.212 129.036 41.487 0 0 0-97.216-14.284 129.036 41.487 0 0 0-129.035 41.486 129.036 41.487 0 0 0 97.603 40.186 129.036 41.487 0 0 0-1.167 5.253 129.036 41.487 0 0 0 129.035 41.488 129.036 41.487 0 0 0 108.177-18.944 129.036 41.487 0 0 0 87.414 11.04 129.036 41.487 0 0 0 129.036-41.486 129.036 41.487 0 0 0-.277-2.51 129.036 41.487 0 0 0 108.939-40.953 129.036 41.487 0 0 0-129.035-41.488 129.036 41.487 0 0 0-96.463 13.99 129.036 41.487 0 0 0-96.412-13.99z" overflow="visible" fill="#d6dae6"/><path style="isolation:auto;mix-blend-mode:normal" d="M1053.744 169.354a124.666 40.082 0 0 0-106.853 19.527 124.666 40.082 0 0 0-93.925-13.8 124.666 40.082 0 0 0-124.665 40.081 124.666 40.082 0 0 0 94.298 38.826 124.666 40.082 0 0 0-1.127 5.074 124.666 40.082 0 0 0 124.665 40.083 124.666 40.082 0 0 0 104.514-18.301 124.666 40.082 0 0 0 84.453 10.665 124.666 40.082 0 0 0 124.667-40.08 124.666 40.082 0 0 0-.268-2.426 124.666 40.082 0 0 0 105.25-39.566 124.666 40.082 0 0 0-124.666-40.083 124.666 40.082 0 0 0-93.196 13.517 124.666 40.082 0 0 0-93.147-13.517z" overflow="visible" fill="#aaaebc"/><path style="isolation:auto;mix-blend-mode:normal" d="M1257.385-25.102a272.024 59.682 0 0 0-233.157 29.077 272.024 59.682 0 0 0-204.945-20.548 272.024 59.682 0 0 0-272.023 59.68 272.024 59.682 0 0 0 205.76 57.811 272.024 59.682 0 0 0-2.46 7.556 272.024 59.682 0 0 0 272.023 59.683 272.024 59.682 0 0 0 228.052-27.251 272.024 59.682 0 0 0 184.279 15.88 272.024 59.682 0 0 0 272.026-59.679 272.024 59.682 0 0 0-.586-3.611 272.024 59.682 0 0 0 229.658-58.914 272.024 59.682 0 0 0-272.023-59.684 272.024 59.682 0 0 0-203.355 20.128 272.024 59.682 0 0 0-203.249-20.128z" overflow="visible" fill="#d6dae6"/><path style="isolation:auto;mix-blend-mode:normal" d="M1264.717-6.908a262.812 57.66 0 0 0-225.261 28.092A262.812 57.66 0 0 0 841.45 1.333a262.812 57.66 0 0 0-262.81 57.658 262.812 57.66 0 0 0 198.791 55.853 262.812 57.66 0 0 0-2.376 7.3 262.812 57.66 0 0 0 262.81 57.662 262.812 57.66 0 0 0 220.33-26.328 262.812 57.66 0 0 0 178.038 15.343 262.812 57.66 0 0 0 262.814-57.659 262.812 57.66 0 0 0-.565-3.488 262.812 57.66 0 0 0 221.88-56.92 262.812 57.66 0 0 0-262.81-57.662 262.812 57.66 0 0 0-196.47 19.446 262.812 57.66 0 0 0-196.366-19.446z" overflow="visible" fill="#aaaebc"/></g><path d="M1920.707 427.8a2456.89 533.298 2.708 0 0-24.672-4.41 2456.89 533.298 2.708 0 0-220.79-33.208 2456.89 533.298 2.708 0 0-230.366-28.73 2456.89 533.298 2.708 0 0-237.635-23.966 2456.89 533.298 2.708 0 0-242.533-18.957 2456.89 533.298 2.708 0 0-245.006-13.761 2456.89 533.298 2.708 0 0-173.615-6.526 2456.89 533.298 2.708 0 0-243.568-4.6 2456.89 533.298 2.708 0 0-239.426.846A2456.89 533.298 2.708 0 0 .707 296.17V640h1920z" fill="#00525f"/><path d="M1771.049 404.697a2047.367 319.533 0 0 0-54.026-4.072 2047.367 319.533 0 0 0-192.244-10.951 2047.367 319.533 0 0 0-198.289-7.903 2047.367 319.533 0 0 0-202.353-4.773 2047.367 319.533 0 0 0-204.397-1.596 2047.367 319.533 0 0 0-144.824.8 2047.367 319.533 0 0 0-203.16 3.849 2047.367 319.533 0 0 0-199.684 6.994 2047.367 319.533 0 0 0-194.21 10.072A2047.367 319.533 0 0 0 0 409.54V640h1920V427.8a2456.89 533.298 2.708 0 0-24.672-4.41 2456.89 533.298 2.708 0 0-124.28-18.693z" fill="#fff4cb"/><path d="M0 382.791a3954.888 379.855 2.776 0 1 731.547 32.89A3954.888 379.855 2.776 0 1 1920 498.712V640H0z" fill="#d9f7ff"/><path d="M1683.601 399.117c36.2-7.53-4.264 12.957 18.828 42.146 29.335 36.215 57.385 52.06 84.14 83.277 47.169 64.563 81.164 133.689 54.72 209.118-18.614 57.81-51.708 112.12-92.852 161.342L1251 828.997c105.618-57.275 211.24-115.973 303.23-187.67 26.057-21.906 42.924-40.717 55.786-79.322 7.16-43.509 4.14-90.3 30.38-129.865 11.934-12.548 26.269-25.194 43.205-33.023z" fill="#34887d" fill-rule="evenodd"/><path d="M280.575 319.032c14.57 2.463 19.669-.443 3.152 16.37-16.516 16.814-74.286 60.846-76.445 69.055-2.16 8.208-16.567-11.442-9.8-21.095 6.766-9.652 83.093-64.33 83.093-64.33z" fill="#fb3a50" fill-rule="evenodd"/><g transform="translate(-291.818 -274.432) scale(1.3869)" color="#000" fill="#f6f6f6"><ellipse ry="92.39" rx="110.724" cy="502.38" cx="478.741" style="isolation:auto;mix-blend-mode:normal" overflow="visible"/><ellipse ry="75.48" rx="90.459" cy="361.49" cx="477.891" style="isolation:auto;mix-blend-mode:normal" overflow="visible"/></g><path d="M135.066 374.016s8.803-6.522 134.416-9.482l-.767-8.977s-44.764 2.06-78.736 2.622l-14.906.44-7.298-1.154c-12.687.081-11.323.71-18.02 2.858-13.38 7.356-14.689 13.693-14.689 13.693z" fill="#ba6808" fill-rule="evenodd"/><ellipse style="isolation:auto;mix-blend-mode:normal" cx="353.664" cy="212.209" rx="14.603" ry="14.132" color="#000" overflow="visible" fill="#4e4e4e"/><ellipse style="isolation:auto;mix-blend-mode:normal" cx="429.846" cy="205.555" rx="18.011" ry="17.43" color="#000" overflow="visible" fill="#4e4e4e"/><ellipse style="isolation:auto;mix-blend-mode:normal" ry="24.38" rx="34.351" cy="119.804" cx="368.127" color="#000" overflow="visible" fill="#f7b55c"/><path style="isolation:auto;mix-blend-mode:normal" d="M384.974 97.828l-9.83.963-.86 4.367-6.832-3.222-9.125 1.86 2.998-4.185-8.264-2.508 9.83-.963.86-4.367 6.832 3.222 9.125-1.86-2.998 4.185z" color="#000" overflow="visible" fill="#0ad845"/><path style="isolation:auto;mix-blend-mode:normal" d="M358.258 142.888a.412.471 0 0 1-.411.471.412.471 0 0 1-.413-.47.412.471 0 0 1 .41-.472.412.471 0 0 1 .414.469l-.412.003z" color="#000" overflow="visible" fill="#7a4d0e"/><path style="line-height:normal;font-variant-ligatures:normal;font-variant-position:normal;font-variant-caps:normal;font-variant-numeric:normal;font-variant-alternates:normal;font-feature-settings:normal;text-indent:0;text-align:start;text-decoration-line:none;text-decoration-style:solid;text-decoration-color:#000;text-transform:none;text-orientation:mixed;shape-padding:0;isolation:auto;mix-blend-mode:normal" d="M424.922 271.345c-4.424.55-4.72 3.236-9.262 4.81-8.093 2.714-25.965 4.878-63.823 2.024l-.872 8.162c37.984 2.864 55.938.802 64.71-2.14 4.385-1.471 6.485-2.912 7.988-5.265.752-1.177 1.353-2.929 1.494-4.518.141-1.589-.235-3.073-.235-3.073z" color="#000" font-weight="400" font-family="sans-serif" white-space="normal" overflow="visible" fill="#616161" fill-rule="evenodd"/><path d="M584.466 217.782s-44.663 41.77-119.086 129.372l6.845 7.519s34.577-38.025 61.514-65.975l38.014 8.743s-6.647-12.428-29.767-17.234c10.15-10.322 18.39-18.251 21.496-20.077 11.499-6.758 20.984-42.348 20.984-42.348z" fill="#ba6808" fill-rule="evenodd"/><path d="M580.067 260.706l-36.016-20.602s22.868-19.141 18.393-37.141c-4.474-18 15.482-2.21 12.02 4.211-3.462 6.42 10.17-27.96 31.828-18.158 21.659 9.803 22.353 27.935 7.867 41.04-14.485 13.105-34.092 30.65-34.092 30.65zM286.833 305.71c92.244 9.279 169.395-20.395 175.895-5.895s30 18.5 2 28-97.222 12.722-135.722 6.222c-38.5-6.5-60.5-2-56-11s13.827-17.328 13.827-17.328z" fill="#fb3a50" fill-rule="evenodd"/><path d="M280.575 319.032c16.77-1.395 21.46-6.289 8.577 18.218-12.884 24.507-62.564 92.947-62.37 103.18.193 10.233-21.768-8.518-17.353-21.791 4.414-13.273 71.146-99.607 71.146-99.607zm-108.569 59.202l-14.75-28.91s-22.465 14.62-39.55 9.238c-17.086-5.381-4.59 11.145 2.29 9.34 6.881-1.805-29.202 4.248-22.886 21.334 6.315 17.086 24.119 19.699 39.317 10.551 15.198-9.148 35.58-21.553 35.58-21.553z" fill="#fb3a50" fill-rule="evenodd"/><g transform="translate(-12 -584)"><g color="#000" fill="#ececec" stroke-width="18.494" stroke-linecap="round" stroke-linejoin="round" transform="translate(-4 -304.185)" id="a"><circle cy="165.25" cx="-271.898" style="isolation:auto;mix-blend-mode:normal" r="19.607" transform="scale(-1 1)" overflow="visible"/><circle cy="51.489" cx="45.092" style="isolation:auto;mix-blend-mode:normal" r="19.607" overflow="visible"/><circle cy="-3.093" cx="-116.676" style="isolation:auto;mix-blend-mode:normal" r="19.607" transform="scale(-1 1)" overflow="visible"/><circle cy="245.777" cx="317.922" style="isolation:auto;mix-blend-mode:normal" r="19.607" overflow="visible"/><circle cy="383.575" cx="-15.955" style="isolation:auto;mix-blend-mode:normal" r="19.607" transform="scale(-1 1)" overflow="visible"/><circle cy="719.167" cx="-231.286" style="isolation:auto;mix-blend-mode:normal" r="19.607" transform="scale(-1 1)" overflow="visible"/><circle cy="109.398" cx="-568.563" style="isolation:auto;mix-blend-mode:normal" r="19.607" transform="scale(-1 1)" overflow="visible"/><circle cy="94.374" cx="-368.717" style="isolation:auto;mix-blend-mode:normal" r="19.607" transform="scale(-1 1)" overflow="visible"/><circle cy="171.194" cx="266.98" style="isolation:auto;mix-blend-mode:normal" r="19.607" overflow="visible"/><circle cy="443.028" cx="-390.476" style="isolation:auto;mix-blend-mode:normal" r="19.607" transform="scale(-1 1)" overflow="visible"/><circle cy="312.847" cx="150.952" style="isolation:auto;mix-blend-mode:normal" r="19.607" overflow="visible"/><circle cy="242.436" cx="-34.917" style="isolation:auto;mix-blend-mode:normal" r="19.607" transform="scale(-1 1)" overflow="visible"/><circle cy="540.137" cx="80.538" style="isolation:auto;mix-blend-mode:normal" r="19.607" overflow="visible"/><circle cy="-52.878" cx="313.007" style="isolation:auto;mix-blend-mode:normal" r="19.607" overflow="visible"/><circle cy="130.754" cx="-453.377" style="isolation:auto;mix-blend-mode:normal" r="19.607" transform="scale(-1 1)" overflow="visible"/><circle cy="328.807" cx="-242.636" style="isolation:auto;mix-blend-mode:normal" r="19.607" transform="scale(-1 1)" overflow="visible"/><circle cy="16.765" cx="490.335" style="isolation:auto;mix-blend-mode:normal" r="19.607" overflow="visible"/><circle cy="426.636" cx="-207.66" style="isolation:auto;mix-blend-mode:normal" r="19.607" transform="scale(-1 1)" overflow="visible"/><circle cy="480.665" cx="555.131" style="isolation:auto;mix-blend-mode:normal" r="19.607" overflow="visible"/><circle cy="495.583" cx="-377.355" style="isolation:auto;mix-blend-mode:normal" r="19.607" transform="scale(-1 1)" overflow="visible"/><circle cy="585.967" cx="238.393" style="isolation:auto;mix-blend-mode:normal" r="19.607" overflow="visible"/><circle cy="-52.286" cx="598.274" style="isolation:auto;mix-blend-mode:normal" r="19.607" overflow="visible"/><circle cy="-53.808" cx="-746.186" style="isolation:auto;mix-blend-mode:normal" r="19.607" transform="scale(-1 1)" overflow="visible"/><circle cy="171.094" cx="549.387" style="isolation:auto;mix-blend-mode:normal" r="19.607" overflow="visible"/><circle cy="245.202" cx="-545.14" style="isolation:auto;mix-blend-mode:normal" r="19.607" transform="scale(-1 1)" overflow="visible"/><circle cy="339.913" cx="733.302" style="isolation:auto;mix-blend-mode:normal" r="19.607" overflow="visible"/><circle cy="390.876" cx="-610.64" style="isolation:auto;mix-blend-mode:normal" r="19.607" transform="scale(-1 1)" overflow="visible"/><circle cy="574.939" cx="572.12" style="isolation:auto;mix-blend-mode:normal" r="19.607" overflow="visible"/><circle cy="393.342" cx="-671.165" style="isolation:auto;mix-blend-mode:normal" r="19.607" transform="scale(-1 1)" overflow="visible"/><circle cy="339.815" cx="493.502" style="isolation:auto;mix-blend-mode:normal" r="19.607" overflow="visible"/><circle cy="324.663" cx="-440.798" style="isolation:auto;mix-blend-mode:normal" r="19.607" transform="scale(-1 1)" overflow="visible"/><circle cy="25.059" cx="574.095" style="isolation:auto;mix-blend-mode:normal" r="19.607" overflow="visible"/><circle cy="83.271" cx="684.575" style="isolation:auto;mix-blend-mode:normal" r="19.607" overflow="visible"/><circle cy="167.903" cx="-732.068" style="isolation:auto;mix-blend-mode:normal" r="19.607" transform="scale(-1 1)" overflow="visible"/><circle cy="7.009" cx="655.545" style="isolation:auto;mix-blend-mode:normal" r="19.607" overflow="visible"/><circle cy="291.197" cx="-782.14" style="isolation:auto;mix-blend-mode:normal" r="19.607" transform="scale(-1 1)" overflow="visible"/><circle cy="53.483" cx="244.472" style="isolation:auto;mix-blend-mode:normal" r="19.607" overflow="visible"/><circle cy="458.5" cx="-704.001" style="isolation:auto;mix-blend-mode:normal" r="19.607" transform="scale(-1 1)" overflow="visible"/><circle cy="206.939" cx="661.622" style="isolation:auto;mix-blend-mode:normal" r="19.607" overflow="visible"/><circle cy="495.301" cx="-644.252" style="isolation:auto;mix-blend-mode:normal" r="19.607" transform="scale(-1 1)" overflow="visible"/><circle cy="524.019" cx="745.012" style="isolation:auto;mix-blend-mode:normal" r="19.607" overflow="visible"/><circle cy="75.927" cx="837.727" style="isolation:auto;mix-blend-mode:normal" r="19.607" overflow="visible"/><circle cy="183.428" cx="-829.91" style="isolation:auto;mix-blend-mode:normal" r="19.607" transform="scale(-1 1)" overflow="visible"/><circle cy="345.358" cx="593.481" style="isolation:auto;mix-blend-mode:normal" r="19.607" overflow="visible"/><circle cy="25.383" cx="-1045.129" style="isolation:auto;mix-blend-mode:normal" r="19.607" transform="scale(-1 1)" overflow="visible"/><circle cy="211.473" cx="753.699" style="isolation:auto;mix-blend-mode:normal" r="19.607" overflow="visible"/><circle cy="184.092" cx="-836.649" style="isolation:auto;mix-blend-mode:normal" r="19.607" transform="scale(-1 1)" overflow="visible"/><circle cy="213.754" cx="1092.521" style="isolation:auto;mix-blend-mode:normal" r="19.607" overflow="visible"/><circle cy="635.792" cx="-812.91" style="isolation:auto;mix-blend-mode:normal" r="19.607" transform="scale(-1 1)" overflow="visible"/><circle cy="663.607" cx="646.363" style="isolation:auto;mix-blend-mode:normal" r="19.607" overflow="visible"/><circle cy="68.548" cx="-1064.745" style="isolation:auto;mix-blend-mode:normal" r="19.607" transform="scale(-1 1)" overflow="visible"/><circle cy="99.453" cx="-951.702" style="isolation:auto;mix-blend-mode:normal" r="19.607" transform="scale(-1 1)" overflow="visible"/><circle cy="243.356" cx="863.331" style="isolation:auto;mix-blend-mode:normal" r="19.607" overflow="visible"/><circle cy="106.141" cx="-1204.322" style="isolation:auto;mix-blend-mode:normal" r="19.607" transform="scale(-1 1)" overflow="visible"/><circle cy="340.629" cx="848.502" style="isolation:auto;mix-blend-mode:normal" r="19.607" overflow="visible"/><circle cy="467.301" cx="-879.76" style="isolation:auto;mix-blend-mode:normal" r="19.607" transform="scale(-1 1)" overflow="visible"/><circle cy="255.913" cx="939.302" style="isolation:auto;mix-blend-mode:normal" r="19.607" overflow="visible"/><circle cy="536.03" cx="976.244" style="isolation:auto;mix-blend-mode:normal" r="19.607" overflow="visible"/><circle cy="-39.353" cx="-1353.819" style="isolation:auto;mix-blend-mode:normal" r="19.607" transform="scale(-1 1)" overflow="visible"/><circle cy="-16.692" cx="895.065" style="isolation:auto;mix-blend-mode:normal" r="19.607" overflow="visible"/><circle cy="31.754" cx="1240.078" style="isolation:auto;mix-blend-mode:normal" r="19.607" overflow="visible"/><circle cy="574.516" cx="-724.163" style="isolation:auto;mix-blend-mode:normal" r="19.607" transform="scale(-1 1)" overflow="visible"/><circle cy="669.408" cx="1928.114" style="isolation:auto;mix-blend-mode:normal" r="19.607" overflow="visible"/><circle cy="392.619" cx="-991.753" style="isolation:auto;mix-blend-mode:normal" r="19.607" transform="scale(-1 1)" overflow="visible"/><circle cy="289.771" cx="1078.005" style="isolation:auto;mix-blend-mode:normal" r="19.607" overflow="visible"/><circle cy="432.843" cx="-1113.31" style="isolation:auto;mix-blend-mode:normal" r="19.607" transform="scale(-1 1)" overflow="visible"/><circle cy="597.834" cx="1064.746" style="isolation:auto;mix-blend-mode:normal" r="19.607" overflow="visible"/><circle cy="662.447" cx="-913.397" style="isolation:auto;mix-blend-mode:normal" r="19.607" transform="scale(-1 1)" overflow="visible"/><circle cy="154.824" cx="1448.009" style="isolation:auto;mix-blend-mode:normal" r="19.607" overflow="visible"/><circle cy="-57.991" cx="1488.255" style="isolation:auto;mix-blend-mode:normal" r="19.607" overflow="visible"/><circle cy="298.596" cx="-1379.383" style="isolation:auto;mix-blend-mode:normal" r="19.607" transform="scale(-1 1)" overflow="visible"/><circle cy="88.465" cx="-1303.363" style="isolation:auto;mix-blend-mode:normal" r="19.607" transform="scale(-1 1)" overflow="visible"/><circle cy="58.279" cx="1134.86" style="isolation:auto;mix-blend-mode:normal" r="19.607" overflow="visible"/><circle cy="443.044" cx="-1435.46" style="isolation:auto;mix-blend-mode:normal" r="19.607" transform="scale(-1 1)" overflow="visible"/><circle cy="326.108" cx="1138.474" style="isolation:auto;mix-blend-mode:normal" r="19.607" overflow="visible"/><circle cy="565.801" cx="-1443.428" style="isolation:auto;mix-blend-mode:normal" r="19.607" transform="scale(-1 1)" overflow="visible"/><circle cy="519.855" cx="1250.584" style="isolation:auto;mix-blend-mode:normal" r="19.607" overflow="visible"/><circle cy="50.072" cx="-1398.516" style="isolation:auto;mix-blend-mode:normal" r="19.607" transform="scale(-1 1)" overflow="visible"/><circle cy="72.939" cx="1483.987" style="isolation:auto;mix-blend-mode:normal" r="19.607" overflow="visible"/><circle cy="41.703" cx="-1558.498" style="isolation:auto;mix-blend-mode:normal" r="19.607" transform="scale(-1 1)" overflow="visible"/><circle cy="211.21" cx="1352.248" style="isolation:auto;mix-blend-mode:normal" r="19.607" overflow="visible"/><circle cy="324.368" cx="1251.956" style="isolation:auto;mix-blend-mode:normal" r="19.607" overflow="visible"/><circle cy="466.701" cx="-1566.578" style="isolation:auto;mix-blend-mode:normal" r="19.607" transform="scale(-1 1)" overflow="visible"/><circle cy="187.007" cx="1198.08" style="isolation:auto;mix-blend-mode:normal" r="19.607" overflow="visible"/><circle cy="493.867" cx="-1371.494" style="isolation:auto;mix-blend-mode:normal" r="19.607" transform="scale(-1 1)" overflow="visible"/><circle cy="440.751" cx="1323.122" style="isolation:auto;mix-blend-mode:normal" r="19.607" overflow="visible"/><circle cy="418.027" cx="-1583.654" style="isolation:auto;mix-blend-mode:normal" r="19.607" transform="scale(-1 1)" overflow="visible"/><circle cy="665.512" cx="-1834.021" style="isolation:auto;mix-blend-mode:normal" r="19.607" transform="scale(-1 1)" overflow="visible"/><circle cy="91.546" cx="1798.959" style="isolation:auto;mix-blend-mode:normal" r="19.607" overflow="visible"/><circle cy="256.651" cx="1699.406" style="isolation:auto;mix-blend-mode:normal" r="19.607" overflow="visible"/><circle cy="132.519" cx="-1360.192" style="isolation:auto;mix-blend-mode:normal" r="19.607" transform="scale(-1 1)" overflow="visible"/><circle cy="9.011" cx="1941.09" style="isolation:auto;mix-blend-mode:normal" r="19.607" overflow="visible"/><circle cy="352.3" cx="-1833.091" style="isolation:auto;mix-blend-mode:normal" r="19.607" transform="scale(-1 1)" overflow="visible"/><circle cy="391.047" cx="-1383.984" style="isolation:auto;mix-blend-mode:normal" r="19.607" transform="scale(-1 1)" overflow="visible"/><circle cy="548.181" cx="1634.581" style="isolation:auto;mix-blend-mode:normal" r="19.607" overflow="visible"/><circle cy="84.749" cx="-1716.293" style="isolation:auto;mix-blend-mode:normal" r="19.607" transform="scale(-1 1)" overflow="visible"/><circle cy="223.389" cx="-1632.399" style="isolation:auto;mix-blend-mode:normal" r="19.607" transform="scale(-1 1)" overflow="visible"/><circle cy="12.941" cx="-1685.977" style="isolation:auto;mix-blend-mode:normal" r="19.607" transform="scale(-1 1)" overflow="visible"/><circle cy="242.72" cx="-1439.608" style="isolation:auto;mix-blend-mode:normal" r="19.607" transform="scale(-1 1)" overflow="visible"/><circle cy="527.597" cx="1707.317" style="isolation:auto;mix-blend-mode:normal" r="19.607" overflow="visible"/><circle cy="534.776" cx="1529.422" style="isolation:auto;mix-blend-mode:normal" r="19.607" overflow="visible"/><circle cy="207.101" cx="-1940.006" style="isolation:auto;mix-blend-mode:normal" r="19.607" transform="scale(-1 1)" overflow="visible"/><circle cy="355.444" cx="1654.444" style="isolation:auto;mix-blend-mode:normal" r="19.607" overflow="visible"/><circle cy="598.343" cx="1593.706" style="isolation:auto;mix-blend-mode:normal" r="19.607" overflow="visible"/><circle cy="642.819" cx="1694.491" style="isolation:auto;mix-blend-mode:normal" r="19.607" overflow="visible"/></g><use height="100%" width="100%" transform="translate(0 816.37)" xlink:href="#a"/></g><path d="M1577.81 208.222c-3.914-11.557-9.133-15.658-2.236-35.23 6.897-19.573 32.993-13.98 36.535-13.421 3.541.559 22.554 5.219 33.366 14.912 10.81 9.693 16.217 23.86 16.217 31.502 0 7.642 3.168 11.743-2.796 30.756-5.965 19.013-15.285 18.267-19.945 19.013-4.66.746-13.794-.56-13.794-.56s-78.02 159.26-88.564 165.586c-10.545 6.327-30.052 6.854-34.27-1.582-4.218-8.435-13.708-2.108-7.908-35.85 5.8-33.743 35.324-72.758 42.178-88.574 6.853-15.817 41.218-86.552 41.218-86.552zm-526.555 194.607c-8.525-10.241-9.806-17.688-30.402-21.565-20.596-3.876-27.49 25.174-28.604 29.007-1.114 3.833-5.615 25.32-1.892 41.405 3.722 16.084 13.895 29.242 20.711 33.437 6.816 4.195 9.03 9.6 28.703 14.098 19.673 4.498 23.251-5.19 26.038-9.42 2.787-4.231 5.782-14.04 5.782-14.04s177.558 9.74 188.002 2.714c10.443-7.025 19.795-26.157 14.192-34.987-5.603-8.83 4.36-14.805-28.373-27.552-32.734-12.747-80.972-4.768-98.199-6.626-17.227-1.858-95.958-6.471-95.958-6.471z" fill="#fca"/><path d="M1573.991 203.515c27.264 18.855 43.817 39.283 61.142 59.366 23.06 26.733 14.913 45.123 14.913 45.123s-86.568 129.514-103.167 173.48c-37.799 100.12-29.558 182.39-33.096 262.67-3.651 82.856-25.32 93.755-25.32 93.755s-38.447 8.939-71.656 2.139c-50.687-10.38-68.978-27.056-68.978-27.056s48.816-323.021 75.594-369.472c24.622-42.711 56.778-71.933 69.846-95.441 14.07-25.31 80.722-144.564 80.722-144.564z" fill="#292929"/><path d="M1431.705 440.129c.746 34.298-27.332 356.687-40.007 370.108-12.675 13.421-99.332 6.323-157.301-28.792-23.294-14.11-73.59-64.217-73.59-64.217s134.566-183.782 125.751-221.042c-10.252-43.336.181.393.181.393s-30.618 5.58-133.904 5.691c-64.142.07-80.365-5.667-80.365-5.667l-13.165-99.336s226.26-4.112 291.874-41.392c65.614-37.28 80.526 84.254 80.526 84.254z" fill="#2b2b2b"/><path d="M1429.958 421.29c0 14.205 3.022 32.895 3.022 32.895s-38.947-9.345-49.355-27.661c-10.409-18.316-5.372-42.613-3.694-41.866 1.68.748 31.561 44.482 50.027 36.633z" fill="#272727"/><path d="M1441.132 419.291c-5.69 28.545-7.316 34.702-7.316 34.702s54.87 11.194 63.406-20.15c8.536-31.343 4.878-20.708 4.878-20.708l-2.033-30.784s-28.045 39.18-58.935 36.94z" fill="#252525"/><g transform="translate(-27.174 -.58) scale(1.01752)" fill="#fb3a50"><path d="M1200.39 269.446c-2.782.043-4.621 2.91-3.499 5.456 5.363 12.66 10.895 21.443 15.14 27.103.344.458.666.865.995 1.285-2.467 1.116-5.67 2.878-9.787 5.574a346.55 346.55 0 0 1-8.863-9.585c-6.046-6.789-12.655-15.233-14.038-18.482a3.888 3.888 0 0 0-3.668-2.415 3.888 3.888 0 0 0-3.486 5.462c2.568 6.028 9.188 13.648 15.384 20.605a387.434 387.434 0 0 0 8.2 8.903c-3.014 2.19-6.392 4.772-10.181 7.814a267.889 267.889 0 0 0-7.77-8.63c-6.765-7.18-15.128-15.355-22.83-19.687a3.888 3.888 0 0 0-1.85-.525 3.888 3.888 0 0 0-1.964 7.3c6.044 3.4 14.434 11.292 20.985 18.243a259.308 259.308 0 0 1 7.416 8.234 509.8 509.8 0 0 0-8.414 7.202c-2.197-1.979-16.8-15.182-29.402-27.942a3.888 3.888 0 0 0-2.784-1.195 3.888 3.888 0 0 0-2.748 6.658c12.027 12.177 25.523 24.454 29.077 27.665a761.944 761.944 0 0 0-7.599 6.897c-5.795-3.162-17.806-9.285-28.445-11.844a3.871 3.871 0 0 0-1.158-.116c-4.52.224-5.076 6.685-.66 7.678 12.527 3.013 24.206 9.903 24.206 9.903 235.213 107.401 328.946 44.224 328.946 44.224s-93.794-13.121-165.719-42.28-94.765-51.028-94.765-51.028-13.225-21.12-17.057-30.055a3.888 3.888 0 0 0-3.662-2.422z"/><path d="M1350.865 392.315c-81.159 70.953-112.261 87.962-112.261 87.962s-22.39 10.938-31.676 13.812a3.89 3.89 0 0 0-2.795 3.39c-.249 2.771 2.409 4.9 5.06 4.05 13.152-4.006 22.468-8.587 28.54-12.215a76.676 76.676 0 0 0 3.876-2.472c1.687 1.928 4.223 4.303 8.151 7.232a343.324 343.324 0 0 1-9.704 9.05c-6.765 6.072-15.183 12.713-18.427 14.11a3.888 3.888 0 0 0-2.401 3.678 3.888 3.888 0 0 0 5.476 3.464c6.018-2.591 13.613-9.242 20.546-15.466a344.526 344.526 0 0 0 11.039-10.336c2.656 1.727 5.732 3.6 9.231 5.616a271.425 271.425 0 0 0-8.786 8.36c-6.988 6.965-14.92 15.555-19.034 23.375a3.888 3.888 0 0 0-.472 1.866 3.888 3.888 0 0 0 7.353 1.756c3.228-6.137 10.88-14.746 17.644-21.49a258.767 258.767 0 0 1 10.457-9.853 471.209 471.209 0 0 0 9.846 5.248c-2.628 5.675-9.803 20.973-17.114 34.739a3.888 3.888 0 0 0-.309 3.015 3.888 3.888 0 0 0 7.175.632c7.272-13.692 14.395-28.844 17.194-34.883 5.258 2.56 9.169 4.249 12.056 5.367-1.302 6.95-3.108 18.817-2.437 28.763.02.388.1.772.236 1.138 1.564 4.247 7.894 2.848 7.523-1.662-.87-12.856 2.219-26.06 2.219-26.06s17.495-25.756 46.168-72.41c28.672-46.654-4.374-59.776-4.374-59.776z"/><ellipse cx="1454.756" cy="302.054" rx="97.212" ry="68.936" transform="matrix(.9984 .05668 -.0514 .99868 0 0)"/></g><path d="M1319.29 297.418c-11.045.373-26.842 12.676-26.842 33.18 0 20.504 22.554 32.434 28.52 34.857 5.964 2.423 17.894 8.761 17.894 8.761s13.286 61.036 97.313 66.354c83.301 5.273 99.382-44.55 101.227-58.521 1.845-13.972 4.276-20.08-.264-41.188-4.277-19.886-4.218-34.996-3.163-65.575 1.054-30.58-18.19-78.03-76.711-98.591-58.522-20.562-92.264-10.808-105.972-.527-13.708 10.28-32.161 24.78-36.379 52.722-4.218 27.943-.527 40.86.527 46.396 1.055 5.536 3.592 21.175 3.85 22.132z" fill="#fca"/><path d="M1397.603 163.357c12.947-.534 50.18-.962 81.931 16.487 24.002 13.19 36.522 23.991 48.939 51.587 6.957 15.46 8.909 59.147 8.909 59.147s-20.875-25.124-39.9-27.53c-19.024-2.405-44.126-.801-64.472 14.7-20.346 15.502-49.676 32.34-59.717 33.142-10.04.802-14.797 2.405-26.423-1.604-11.626-4.009-13.918-12.518-24.216-12.036-5.59.262-5.323.368-5.323.368s-6.925-35.104-4.811-54.882 6.077-32.607 14.004-45.97c7.927-13.364 24.574-22.183 27.48-22.985 2.907-.802 10.305-6.682 25.895-8.82s17.704-1.604 17.704-1.604z" fill="#5a3400"/><path d="M1396.365 310.436a1.864 1.864 0 0 0-.525 3.627l37.598 13.443-37.82 19.389a1.864 1.864 0 0 0 .85 3.523 1.864 1.864 0 0 0 1.057-.31 1.864 1.864 0 0 0 0-.003l41.44-21.246a1.864 1.864 0 0 0-.223-3.414l-41.65-14.892a1.864 1.864 0 0 0-.73-.117zm122.492 3.627a1.864 1.864 0 0 0-.496.08l-39.408 11.334a1.864 1.864 0 0 0-.316 3.46l37.3 18.584a1.864 1.864 0 1 0 1.663-3.335l-33.014-16.45 34.807-10.011a1.864 1.864 0 0 0-.536-3.662zm-26.134-32.051c-3.713.464-6.693.8-10.35 2.717-3.657 1.916-7.896 5.285-14.746 11.76a1.864 1.864 0 1 0 2.563 2.708c6.757-6.387 10.813-9.543 13.913-11.168 3.1-1.625 5.34-1.85 9.082-2.318 6.652-.832 12.881 2.869 15.475 4.266.105.056 1.596 1.173 3.188 2.558 1.591 1.385 3.51 3.13 5.355 4.836 3.69 3.41 7.08 6.662 7.08 6.662a1.864 1.864 0 1 0 2.582-2.69s-3.412-3.27-7.133-6.71a256.786 256.786 0 0 0-5.437-4.91c-1.641-1.429-2.76-2.432-3.867-3.028-2.253-1.213-9.445-5.716-17.705-4.683zm-76.479-6.084c-18.303-.984-31.615 12.472-31.615 12.472a1.864 1.864 0 1 0 2.635 2.635s12.41-12.265 28.779-11.385c8.412.453 12.608 2.299 16.377 5.678 3.77 3.38 7.105 8.574 12.863 15.465a1.864 1.864 0 1 0 2.86-2.39c-5.613-6.717-8.894-11.962-13.233-15.852-4.34-3.89-9.742-6.143-18.666-6.623z" style="line-height:normal;text-indent:0;text-align:start;text-decoration-line:none;text-decoration-style:solid;text-decoration-color:#000;text-transform:none;isolation:auto;mix-blend-mode:normal" color="#000" font-weight="400" font-family="sans-serif" white-space="normal" overflow="visible" fill="#282828"/><path d="M1479.94 385.199c-9.37-4.327-34.417-14.186-42.362-11.564-5.037 1.662-6.854 4.745-7.117 9.49-.264 4.745-1.305 22.126 2.372 36.95 3.392 13.676 7.2 20.51 14.11 21.617 4.188.67 10.444-1.575 14.36-4.35 8.392-5.946 10.726-10.54 15.29-23.33 2.02-5.661 5.932-21.382 6.326-23.988.376-2.482-1.009-3.91-2.98-4.825z" fill="#ff3c3c"/></svg>